solid outside_2013
facet normal -0.7071067811865335 -0.7071067811865616 6.360716558346754e-17
outer loop
vertex 223.30498876800834 544.2561632370805 72.8399999999994
vertex 214.0965891841963 553.4645628208921 71.76999999999951
vertex 223.30498876800823 544.2561632370805 71.76999999999947
endloop
endfacet
facet normal -0.7071067811865335 -0.7071067811865616 6.360716558346754e-17
outer loop
vertex 214.0965891841963 553.4645628208921 71.76999999999951
vertex 223.30498876800834 544.2561632370805 72.8399999999994
vertex 214.09658918419623 553.4645628208921 72.83999999999953
endloop
endfacet
facet normal -9.379798908274062e-16 -3.7519195633095984e-16 1.0
outer loop
vertex 282.903265123829 555.2619171729203 65.15999999999954
vertex 225.1798992026694 612.9852830940804 65.15999999999953
vertex 225.1798992026694 555.2619171729203 65.15999999999951
endloop
endfacet
facet normal -9.379798908274062e-16 -3.7519195633095984e-16 1.0
outer loop
vertex 225.1798992026694 612.9852830940804 65.15999999999953
vertex 282.903265123829 555.2619171729203 65.15999999999954
vertex 282.90326512382893 612.9852830940804 65.1599999999996
endloop
endfacet
facet normal 6.663694019221419e-32 1.0 0.0
outer loop
vertex 223.3049887680083 624.0441092596984 72.8399999999994
vertex 284.67613562300215 624.0441092596983 71.76999999999956
vertex 223.3049887680083 624.0441092596984 71.7699999999995
endloop
endfacet
facet normal 6.663694019221419e-32 1.0 0.0
outer loop
vertex 284.67613562300215 624.0441092596983 71.76999999999956
vertex 223.3049887680083 624.0441092596984 72.8399999999994
vertex 284.67613562300204 624.0441092596983 72.83999999999945
endloop
endfacet
facet normal -6.663694019221419e-32 -1.0 0.0
outer loop
vertex 284.6761356230022 544.2561632370804 71.76999999999956
vertex 223.30498876800834 544.2561632370805 72.8399999999994
vertex 223.30498876800823 544.2561632370805 71.76999999999947
endloop
endfacet
facet normal -6.663694019221419e-32 -1.0 0.0
outer loop
vertex 223.30498876800834 544.2561632370805 72.8399999999994
vertex 284.6761356230022 544.2561632370804 71.76999999999956
vertex 284.67613562300204 544.2561632370804 72.83999999999945
endloop
endfacet
facet normal 9.373272608540235e-16 0.6312270304674217 -0.7755981150101391
outer loop
vertex 284.67613562300215 624.0441092596983 71.76999999999956
vertex 223.92630911156786 614.2143893323267 63.76999999999948
vertex 223.3049887680083 624.0441092596984 71.7699999999995
endloop
endfacet
facet normal 9.373272608540235e-16 0.6312270304674217 -0.7755981150101391
outer loop
vertex 223.92630911156786 614.2143893323267 63.76999999999948
vertex 284.67613562300215 624.0441092596983 71.76999999999956
vertex 284.0548152794423 614.2143893323267 63.769999999999555
endloop
endfacet
facet normal 1.0 2.2864780207388843e-32 2.2009494497934874e-15
outer loop
vertex 293.8845352068136 614.8357096758864 71.76999999999961
vertex 293.88453520681355 553.464562820892 72.8399999999995
vertex 293.8845352068136 553.464562820892 71.76999999999961
endloop
endfacet
facet normal 1.0 2.2864780207388843e-32 2.2009494497934874e-15
outer loop
vertex 293.88453520681355 553.464562820892 72.8399999999995
vertex 293.8845352068136 614.8357096758864 71.76999999999961
vertex 293.8845352068135 614.8357096758864 72.8399999999995
endloop
endfacet
facet normal 0.5194101744059785 -0.5194101744059624 -0.6785470812310069
outer loop
vertex 293.8845352068136 553.464562820892 71.76999999999961
vertex 284.6761356230022 544.2561632370804 71.76999999999956
vertex 284.05481527944244 554.0858831644517 63.769999999999506
endloop
endfacet
facet normal 0.5194101744059809 0.5194101744059554 -0.6785470812310104
outer loop
vertex 293.8845352068136 614.8357096758864 71.76999999999961
vertex 284.0548152794423 614.2143893323267 63.769999999999555
vertex 284.67613562300215 624.0441092596983 71.76999999999956
endloop
endfacet
facet normal 0.6312270304674319 5.16964684360876e-16 -0.7755981150101308
outer loop
vertex 293.8845352068136 614.8357096758864 71.76999999999961
vertex 284.05481527944244 554.0858831644517 63.769999999999506
vertex 284.0548152794423 614.2143893323267 63.769999999999555
endloop
endfacet
facet normal 0.6312270304674319 5.16964684360876e-16 -0.7755981150101308
outer loop
vertex 284.05481527944244 554.0858831644517 63.769999999999506
vertex 293.8845352068136 614.8357096758864 71.76999999999961
vertex 293.8845352068136 553.464562820892 71.76999999999961
endloop
endfacet
facet normal -1.0 -1.5529335814329898e-32 -9.170622707472845e-16
outer loop
vertex 214.09658918419623 614.8357096758864 72.83999999999955
vertex 214.0965891841963 553.4645628208921 71.76999999999951
vertex 214.09658918419623 553.4645628208921 72.83999999999953
endloop
endfacet
facet normal -1.0 -1.5529335814329898e-32 -9.170622707472845e-16
outer loop
vertex 214.0965891841963 553.4645628208921 71.76999999999951
vertex 214.09658918419623 614.8357096758864 72.83999999999955
vertex 214.0965891841963 614.8357096758864 71.76999999999951
endloop
endfacet
facet normal 0.5999321434293716 -0.5999321434293703 -0.5293041153821509
outer loop
vertex 225.1798992026694 612.9852830940804 65.15999999999953
vertex 234.290562195506 606.6561632370792 82.65999999999877
vertex 231.79056219550603 604.1561632370792 82.65999999999876
endloop
endfacet
facet normal 7.266884730246791e-16 -0.6312270304674271 -0.7755981150101346
outer loop
vertex 223.92630911156786 554.0858831644517 63.76999999999948
vertex 284.6761356230022 544.2561632370804 71.76999999999956
vertex 223.30498876800823 544.2561632370805 71.76999999999947
endloop
endfacet
facet normal 7.266884730246791e-16 -0.6312270304674271 -0.7755981150101346
outer loop
vertex 284.6761356230022 544.2561632370804 71.76999999999956
vertex 223.92630911156786 554.0858831644517 63.76999999999948
vertex 284.05481527944244 554.0858831644517 63.769999999999506
endloop
endfacet
facet normal -0.5194101744059603 -0.519410174405974 -0.678547081231012
outer loop
vertex 223.92630911156786 554.0858831644517 63.76999999999948
vertex 223.30498876800823 544.2561632370805 71.76999999999947
vertex 214.0965891841963 553.4645628208921 71.76999999999951
endloop
endfacet
facet normal -0.5464056359040378 0.8375206749999096 2.7433007589492243e-15
outer loop
vertex 231.79056219550495 564.1561632370802 85.15999999999869
vertex 231.79056219550495 564.1561632370802 82.65999999999873
vertex 217.24336807239266 554.665449643103 72.83999999999963
endloop
endfacet
facet normal 0.5597759291751943 0.8286440183311817 7.420603720585003e-13
outer loop
vertex 276.79056219550495 564.1561632370802 85.15999999999867
vertex 290.8397962541054 554.6654496431029 72.83999999999962
vertex 276.7905621955056 564.1561632370821 82.65999999999883
endloop
endfacet
facet normal 0.3703205716079765 0.8739298056643842 -0.314816405251304
outer loop
vertex 276.7905621955056 564.1561632370821 82.65999999999883
vertex 290.8397962541054 554.6654496431029 72.83999999999962
vertex 282.903265123829 555.2619171729203 65.15999999999954
endloop
endfacet
facet normal -0.36473178385106125 0.8784540277252044 -0.3086895641614542
outer loop
vertex 231.79056219550495 564.1561632370802 82.65999999999873
vertex 225.1798992026694 555.2619171729203 65.15999999999951
vertex 217.24336807239266 554.665449643103 72.83999999999963
endloop
endfacet
facet normal 0.5992229387004449 0.5992229387007147 -0.5309084096810698
outer loop
vertex 231.79056219550495 564.1561632370802 82.65999999999873
vertex 234.29056219550492 561.6561632370813 82.65999999999873
vertex 225.1798992026694 555.2619171729203 65.15999999999951
endloop
endfacet
facet normal 9.37979890827406e-16 3.7519195633095984e-16 -1.0
outer loop
vertex 284.0548152794423 614.2143893323267 63.769999999999555
vertex 223.92630911156786 554.0858831644517 63.76999999999948
vertex 223.92630911156786 614.2143893323267 63.76999999999948
endloop
endfacet
facet normal 9.37979890827406e-16 3.7519195633095984e-16 -1.0
outer loop
vertex 223.92630911156786 554.0858831644517 63.76999999999948
vertex 284.0548152794423 614.2143893323267 63.769999999999555
vertex 284.05481527944244 554.0858831644517 63.769999999999506
endloop
endfacet
facet normal -0.6312270304674181 2.6073634959696686e-18 -0.7755981150101419
outer loop
vertex 223.92630911156786 614.2143893323267 63.76999999999948
vertex 214.0965891841963 553.4645628208921 71.76999999999951
vertex 214.0965891841963 614.8357096758864 71.76999999999951
endloop
endfacet
facet normal -0.6312270304674181 2.6073634959696686e-18 -0.7755981150101419
outer loop
vertex 214.0965891841963 553.4645628208921 71.76999999999951
vertex 223.92630911156786 614.2143893323267 63.76999999999948
vertex 223.92630911156786 554.0858831644517 63.76999999999948
endloop
endfacet
facet normal 0.8718187489965233 -0.3728848179035671 -0.3176302590673009
outer loop
vertex 234.29056219550492 561.6561632370813 82.65999999999873
vertex 224.58343167285224 547.3253860426438 72.83999999999956
vertex 225.1798992026694 555.2619171729203 65.15999999999951
endloop
endfacet
facet normal -0.8412711758267721 -0.5406133634336467 -5.906037654776412e-13
outer loop
vertex 274.29056219550563 561.6561632370821 82.65999999999867
vertex 283.49973265364633 547.3253860426438 72.8399999999996
vertex 274.290562195505 561.6561632370802 85.15999999999869
endloop
endfacet
facet normal -0.6046326328449098 0.6046326328449425 -0.5184966331597781
outer loop
vertex 276.7905621955056 564.1561632370821 82.65999999999883
vertex 282.903265123829 555.2619171729203 65.15999999999954
vertex 274.29056219550563 561.6561632370821 82.65999999999867
endloop
endfacet
facet normal -0.8825715077687973 -0.3595301495407063 -0.30299439804384004
outer loop
vertex 274.29056219550563 561.6561632370821 82.65999999999867
vertex 282.903265123829 555.2619171729203 65.15999999999954
vertex 283.49973265364633 547.3253860426438 72.8399999999996
endloop
endfacet
facet normal -0.36298852790936004 -0.8798438937091341 -0.30678013512766067
outer loop
vertex 231.79056219550603 604.1561632370792 82.65999999999876
vertex 217.24336807239266 613.5817506238976 72.83999999999956
vertex 225.1798992026694 612.9852830940804 65.15999999999953
endloop
endfacet
facet normal 0.8267516276191049 0.5625671037566639 1.1545482338456252e-13
outer loop
vertex 224.58343167285219 620.9218142243569 72.83999999999955
vertex 234.29056219550492 606.6561632370802 85.15999999999869
vertex 234.290562195506 606.6561632370792 82.65999999999877
endloop
endfacet
facet normal 0.8712104726574234 0.3736186709594368 -0.3184358664512102
outer loop
vertex 224.58343167285219 620.9218142243569 72.83999999999955
vertex 234.290562195506 606.6561632370792 82.65999999999877
vertex 225.1798992026694 612.9852830940804 65.15999999999953
endloop
endfacet
facet normal 0.8279405619252362 -0.5608158574067997 -2.459114210216407e-13
outer loop
vertex 234.29056219550492 561.6561632370813 82.65999999999873
vertex 234.29056219550492 561.6561632370802 85.15999999999869
vertex 224.58343167285224 547.3253860426438 72.83999999999956
endloop
endfacet
facet normal -0.5437674995136738 -0.8392359063294699 1.2370135512730383e-13
outer loop
vertex 231.79056219550495 604.1561632370804 85.15999999999869
vertex 217.24336807239266 613.5817506238976 72.83999999999956
vertex 231.79056219550603 604.1561632370792 82.65999999999876
endloop
endfacet
facet normal -0.707106781186541 0.707106781186554 -2.577764078908702e-16
outer loop
vertex 214.0965891841963 614.8357096758864 71.76999999999951
vertex 223.3049887680083 624.0441092596984 72.8399999999994
vertex 223.3049887680083 624.0441092596984 71.7699999999995
endloop
endfacet
facet normal -0.707106781186541 0.707106781186554 -2.577764078908702e-16
outer loop
vertex 223.3049887680083 624.0441092596984 72.8399999999994
vertex 214.0965891841963 614.8357096758864 71.76999999999951
vertex 214.09658918419623 614.8357096758864 72.83999999999955
endloop
endfacet
facet normal 0.7071067811865553 -0.7071067811865397 1.81447809190722e-15
outer loop
vertex 293.8845352068136 553.464562820892 71.76999999999961
vertex 284.67613562300204 544.2561632370804 72.83999999999945
vertex 284.6761356230022 544.2561632370804 71.76999999999956
endloop
endfacet
facet normal 0.7071067811865553 -0.7071067811865397 1.81447809190722e-15
outer loop
vertex 284.67613562300204 544.2561632370804 72.83999999999945
vertex 293.8845352068136 553.464562820892 71.76999999999961
vertex 293.88453520681355 553.464562820892 72.8399999999995
endloop
endfacet
facet normal 0.7071067811865631 0.7071067811865319 1.5567016840163578e-15
outer loop
vertex 284.67613562300215 624.0441092596983 71.76999999999956
vertex 293.8845352068135 614.8357096758864 72.8399999999995
vertex 293.8845352068136 614.8357096758864 71.76999999999961
endloop
endfacet
facet normal 0.7071067811865631 0.7071067811865319 1.5567016840163578e-15
outer loop
vertex 293.8845352068135 614.8357096758864 72.8399999999995
vertex 284.67613562300215 624.0441092596983 71.76999999999956
vertex 284.67613562300204 624.0441092596983 72.83999999999945
endloop
endfacet
facet normal 6.767919558114873e-15 -1.0 6.015928496102241e-14
outer loop
vertex 274.29056219550625 604.1561632370804 85.15999999999876
vertex 234.29056219550623 604.1561632370799 83.65999999999838
vertex 274.2905621955062 604.1561632370801 83.65999999999806
endloop
endfacet
facet normal 6.767919558114873e-15 -1.0 6.015928496102241e-14
outer loop
vertex 234.29056219550623 604.1561632370799 83.65999999999838
vertex 274.29056219550625 604.1561632370804 85.15999999999876
vertex 234.290562195506 604.1561632370799 85.15999999999838
endloop
endfacet
facet normal 1.6214807274650378e-14 1.832978213656343e-15 1.0
outer loop
vertex 234.29056219550623 564.1561632370804 83.65999999999879
vertex 235.79056219550617 565.6561632370804 83.65999999999902
vertex 234.29056219550623 604.1561632370799 83.65999999999838
endloop
endfacet
facet normal 1.6214807274650378e-14 1.832978213656343e-15 1.0
outer loop
vertex 235.79056219550617 565.6561632370804 83.65999999999902
vertex 234.29056219550623 564.1561632370804 83.65999999999879
vertex 274.2905621955062 564.1561632370821 83.6599999999978
endloop
endfacet
facet normal 1.6214807274650378e-14 1.832978213656343e-15 1.0
outer loop
vertex 235.79056219550617 565.6561632370804 83.65999999999902
vertex 274.2905621955062 564.1561632370821 83.6599999999978
vertex 272.79056219550614 565.6561632370821 83.65999999999782
endloop
endfacet
facet normal 1.6214807274650378e-14 1.832978213656343e-15 1.0
outer loop
vertex 272.79056219550614 565.6561632370821 83.65999999999782
vertex 274.2905621955062 564.1561632370821 83.6599999999978
vertex 272.7905621955062 602.6561632370801 83.65999999999782
endloop
endfacet
facet normal 1.6214807274650378e-14 1.832978213656343e-15 1.0
outer loop
vertex 234.29056219550623 604.1561632370799 83.65999999999838
vertex 235.79056219550625 602.6561632370799 83.65999999999833
vertex 274.2905621955062 604.1561632370801 83.65999999999806
endloop
endfacet
facet normal 1.6214807274650378e-14 1.832978213656343e-15 1.0
outer loop
vertex 235.79056219550625 602.6561632370799 83.65999999999833
vertex 234.29056219550623 604.1561632370799 83.65999999999838
vertex 235.79056219550617 565.6561632370804 83.65999999999902
endloop
endfacet
facet normal 1.6214807274650378e-14 1.832978213656343e-15 1.0
outer loop
vertex 274.2905621955062 604.1561632370801 83.65999999999806
vertex 235.79056219550625 602.6561632370799 83.65999999999833
vertex 272.7905621955062 602.6561632370801 83.65999999999782
endloop
endfacet
facet normal 1.6214807274650378e-14 1.832978213656343e-15 1.0
outer loop
vertex 274.2905621955062 604.1561632370801 83.65999999999806
vertex 272.7905621955062 602.6561632370801 83.65999999999782
vertex 274.2905621955062 564.1561632370821 83.6599999999978
endloop
endfacet
facet normal 1.0 -1.9815980688205256e-15 -2.4251711749915964e-13
outer loop
vertex 235.79056219550603 602.6561632370802 82.65999999999872
vertex 235.79056219550617 565.6561632370804 83.65999999999902
vertex 235.79056219550594 565.6561632370804 82.65999999999896
endloop
endfacet
facet normal 1.0 -1.9815980688205256e-15 -2.4251711749915964e-13
outer loop
vertex 235.79056219550617 565.6561632370804 83.65999999999902
vertex 235.79056219550603 602.6561632370802 82.65999999999872
vertex 235.79056219550625 602.6561632370799 83.65999999999833
endloop
endfacet
facet normal -1.0 1.3535839116229962e-14 -2.1657342585968576e-13
outer loop
vertex 231.79056219550495 604.1561632370804 85.15999999999869
vertex 231.79056219550495 564.1561632370802 82.65999999999873
vertex 231.79056219550495 564.1561632370802 85.15999999999869
endloop
endfacet
facet normal -1.0 1.3535839116229962e-14 -2.1657342585968576e-13
outer loop
vertex 231.79056219550495 564.1561632370802 82.65999999999873
vertex 231.79056219550495 604.1561632370804 85.15999999999869
vertex 231.79056219550603 604.1561632370792 82.65999999999876
endloop
endfacet
facet normal -1.0 1.8291674481393163e-15 1.127986593020092e-14
outer loop
vertex 272.7905621955062 602.6561632370801 83.65999999999782
vertex 272.79056219550614 565.6561632370821 82.65999999999879
vertex 272.79056219550614 565.6561632370821 83.65999999999782
endloop
endfacet
facet normal -1.0 1.8291674481393163e-15 1.127986593020092e-14
outer loop
vertex 272.79056219550614 565.6561632370821 82.65999999999879
vertex 272.7905621955062 602.6561632370801 83.65999999999782
vertex 272.7905621955062 602.6561632370802 82.65999999999846
endloop
endfacet
facet normal 1.0 1.409983241290833e-16 1.616780783327464e-13
outer loop
vertex 234.29056219550623 604.1561632370799 83.65999999999838
vertex 234.290562195506 564.1561632370804 85.15999999999879
vertex 234.29056219550623 564.1561632370804 83.65999999999879
endloop
endfacet
facet normal 1.0 1.409983241290833e-16 1.616780783327464e-13
outer loop
vertex 234.290562195506 564.1561632370804 85.15999999999879
vertex 234.29056219550623 604.1561632370799 83.65999999999838
vertex 234.290562195506 604.1561632370799 85.15999999999838
endloop
endfacet
facet normal -4.060751734868961e-14 1.0 -2.951917507337026e-27
outer loop
vertex 234.29056219550623 564.1561632370804 83.65999999999879
vertex 274.29056219550625 564.1561632370821 85.15999999999882
vertex 274.2905621955062 564.1561632370821 83.6599999999978
endloop
endfacet
facet normal -4.060751734868961e-14 1.0 -2.951917507337026e-27
outer loop
vertex 274.29056219550625 564.1561632370821 85.15999999999882
vertex 234.29056219550623 564.1561632370804 83.65999999999879
vertex 234.290562195506 564.1561632370804 85.15999999999879
endloop
endfacet
facet normal -4.3900018755340127e-14 1.0 5.5725134344812274e-27
outer loop
vertex 235.79056219550594 565.6561632370804 82.65999999999896
vertex 272.79056219550614 565.6561632370821 83.65999999999782
vertex 272.79056219550614 565.6561632370821 82.65999999999879
endloop
endfacet
facet normal -4.3900018755340127e-14 1.0 5.5725134344812274e-27
outer loop
vertex 272.79056219550614 565.6561632370821 83.65999999999782
vertex 235.79056219550594 565.6561632370804 82.65999999999896
vertex 235.79056219550617 565.6561632370804 83.65999999999902
endloop
endfacet
facet normal -0.5194101744059648 0.5194101744059706 -0.6785470812310114
outer loop
vertex 223.92630911156786 614.2143893323267 63.76999999999948
vertex 214.0965891841963 614.8357096758864 71.76999999999951
vertex 223.3049887680083 624.0441092596984 71.7699999999995
endloop
endfacet
facet normal -1.0 -4.0268960822510094e-29 1.5039821240246827e-14
outer loop
vertex 274.29056219550625 604.1561632370804 85.15999999999876
vertex 274.2905621955062 564.1561632370821 83.6599999999978
vertex 274.29056219550625 564.1561632370821 85.15999999999882
endloop
endfacet
facet normal -1.0 -4.0268960822510094e-29 1.5039821240246827e-14
outer loop
vertex 274.2905621955062 564.1561632370821 83.6599999999978
vertex 274.29056219550625 604.1561632370804 85.15999999999876
vertex 274.2905621955062 604.1561632370801 83.65999999999806
endloop
endfacet
facet normal 2.4388899308494988e-15 -1.0 -2.7071678232475065e-13
outer loop
vertex 272.7905621955062 602.6561632370801 83.65999999999782
vertex 235.79056219550603 602.6561632370802 82.65999999999872
vertex 272.7905621955062 602.6561632370802 82.65999999999846
endloop
endfacet
facet normal 2.4388899308494988e-15 -1.0 -2.7071678232475065e-13
outer loop
vertex 235.79056219550603 602.6561632370802 82.65999999999872
vertex 272.7905621955062 602.6561632370801 83.65999999999782
vertex 235.79056219550625 602.6561632370799 83.65999999999833
endloop
endfacet
facet normal 1.0 -7.331912854624097e-15 3.699796025103005e-13
outer loop
vertex 276.7905621955056 564.1561632370821 82.65999999999883
vertex 276.79056219550495 604.1561632370804 85.15999999999867
vertex 276.79056219550495 564.1561632370802 85.15999999999867
endloop
endfacet
facet normal 1.0 -7.331912854624097e-15 3.699796025103005e-13
outer loop
vertex 276.79056219550495 604.1561632370804 85.15999999999867
vertex 276.7905621955056 564.1561632370821 82.65999999999883
vertex 276.7905621955062 604.1561632370804 82.65999999999876
endloop
endfacet
facet normal -1.2446748612625089e-16 1.0112983247758517e-16 -1.0
outer loop
vertex 234.290562195506 606.6561632370792 82.65999999999877
vertex 235.79056219550603 602.6561632370802 82.65999999999872
vertex 235.79056219550594 565.6561632370804 82.65999999999896
endloop
endfacet
facet normal -1.2446748612625089e-16 1.0112983247758517e-16 -1.0
outer loop
vertex 235.79056219550603 602.6561632370802 82.65999999999872
vertex 234.290562195506 606.6561632370792 82.65999999999877
vertex 274.2905621955062 606.6561632370802 82.65999999999869
endloop
endfacet
facet normal -1.2446748612625089e-16 1.0112983247758517e-16 -1.0
outer loop
vertex 235.79056219550603 602.6561632370802 82.65999999999872
vertex 274.2905621955062 606.6561632370802 82.65999999999869
vertex 272.7905621955062 602.6561632370802 82.65999999999846
endloop
endfacet
facet normal -1.2446748612625089e-16 1.0112983247758517e-16 -1.0
outer loop
vertex 272.7905621955062 602.6561632370802 82.65999999999846
vertex 274.2905621955062 606.6561632370802 82.65999999999869
vertex 274.29056219550563 561.6561632370821 82.65999999999867
endloop
endfacet
facet normal -1.2446748612625089e-16 1.0112983247758517e-16 -1.0
outer loop
vertex 274.29056219550563 561.6561632370821 82.65999999999867
vertex 274.2905621955062 606.6561632370802 82.65999999999869
vertex 276.7905621955056 564.1561632370821 82.65999999999883
endloop
endfacet
facet normal -1.2446748612625089e-16 1.0112983247758517e-16 -1.0
outer loop
vertex 276.7905621955056 564.1561632370821 82.65999999999883
vertex 274.2905621955062 606.6561632370802 82.65999999999869
vertex 276.7905621955062 604.1561632370804 82.65999999999876
endloop
endfacet
facet normal -1.2446748612625089e-16 1.0112983247758517e-16 -1.0
outer loop
vertex 231.79056219550603 604.1561632370792 82.65999999999876
vertex 234.29056219550492 561.6561632370813 82.65999999999873
vertex 231.79056219550495 564.1561632370802 82.65999999999873
endloop
endfacet
facet normal -1.2446748612625089e-16 1.0112983247758517e-16 -1.0
outer loop
vertex 234.29056219550492 561.6561632370813 82.65999999999873
vertex 231.79056219550603 604.1561632370792 82.65999999999876
vertex 234.290562195506 606.6561632370792 82.65999999999877
endloop
endfacet
facet normal -1.2446748612625089e-16 1.0112983247758517e-16 -1.0
outer loop
vertex 234.29056219550492 561.6561632370813 82.65999999999873
vertex 234.290562195506 606.6561632370792 82.65999999999877
vertex 235.79056219550594 565.6561632370804 82.65999999999896
endloop
endfacet
facet normal -1.2446748612625089e-16 1.0112983247758517e-16 -1.0
outer loop
vertex 234.29056219550492 561.6561632370813 82.65999999999873
vertex 235.79056219550594 565.6561632370804 82.65999999999896
vertex 274.29056219550563 561.6561632370821 82.65999999999867
endloop
endfacet
facet normal -1.2446748612625089e-16 1.0112983247758517e-16 -1.0
outer loop
vertex 274.29056219550563 561.6561632370821 82.65999999999867
vertex 235.79056219550594 565.6561632370804 82.65999999999896
vertex 272.79056219550614 565.6561632370821 82.65999999999879
endloop
endfacet
facet normal -1.2446748612625089e-16 1.0112983247758517e-16 -1.0
outer loop
vertex 274.29056219550563 561.6561632370821 82.65999999999867
vertex 272.79056219550614 565.6561632370821 82.65999999999879
vertex 272.7905621955062 602.6561632370802 82.65999999999846
endloop
endfacet
facet normal 9.023892744152929e-15 -1.0 -5.775291356258132e-13
outer loop
vertex 274.290562195505 561.6561632370802 85.15999999999869
vertex 234.29056219550492 561.6561632370813 82.65999999999873
vertex 274.29056219550563 561.6561632370821 82.65999999999867
endloop
endfacet
facet normal 9.023892744152929e-15 -1.0 -5.775291356258132e-13
outer loop
vertex 234.29056219550492 561.6561632370813 82.65999999999873
vertex 274.290562195505 561.6561632370802 85.15999999999869
vertex 234.29056219550492 561.6561632370802 85.15999999999869
endloop
endfacet
facet normal -0.6053377522227671 -0.6053377522227821 -0.5168485382273588
outer loop
vertex 276.7905621955062 604.1561632370804 82.65999999999876
vertex 274.2905621955062 606.6561632370802 82.65999999999869
vertex 282.90326512382893 612.9852830940804 65.1599999999996
endloop
endfacet
facet normal -0.8401483979409092 0.5423565888207902 -3.920394188154885e-13
outer loop
vertex 283.49973265364633 620.9218142243569 72.8399999999996
vertex 274.2905621955062 606.6561632370802 82.65999999999869
vertex 274.290562195505 606.6561632370802 85.15999999999867
endloop
endfacet
facet normal -0.8820018509043939 0.3602565586377294 -0.3037893134389746
outer loop
vertex 283.49973265364633 620.9218142243569 72.8399999999996
vertex 282.90326512382893 612.9852830940804 65.1599999999996
vertex 274.2905621955062 606.6561632370802 82.65999999999869
endloop
endfacet
facet normal 0.5571298219567544 -0.8304254099474769 2.741318789270551e-13
outer loop
vertex 276.79056219550495 604.1561632370804 85.15999999999867
vertex 276.7905621955062 604.1561632370804 82.65999999999876
vertex 290.8397962541054 613.5817506238975 72.83999999999962
endloop
endfacet
facet normal 0.3685698816998956 -0.8753582989483839 -0.3128962939472385
outer loop
vertex 276.7905621955062 604.1561632370804 82.65999999999876
vertex 282.90326512382893 612.9852830940804 65.1599999999996
vertex 290.8397962541054 613.5817506238975 72.83999999999962
endloop
endfacet
facet normal -1.3535839116230117e-14 1.0 -2.1657342585968604e-13
outer loop
vertex 234.290562195506 606.6561632370792 82.65999999999877
vertex 274.290562195505 606.6561632370802 85.15999999999867
vertex 274.2905621955062 606.6561632370802 82.65999999999869
endloop
endfacet
facet normal -1.3535839116230117e-14 1.0 -2.1657342585968604e-13
outer loop
vertex 274.290562195505 606.6561632370802 85.15999999999867
vertex 234.290562195506 606.6561632370792 82.65999999999877
vertex 234.29056219550492 606.6561632370802 85.15999999999869
endloop
endfacet
facet normal -0.7071067811865431 0.707106781186552 2.6379188818865296e-15
outer loop
vertex 215.74336807239268 613.5817506238976 72.83999999999956
vertex 224.58343167285219 622.421814224357 78.83999999999955
vertex 224.58343167285219 622.421814224357 72.83999999999955
endloop
endfacet
facet normal -0.7071067811865431 0.707106781186552 2.6379188818865296e-15
outer loop
vertex 224.58343167285219 622.421814224357 78.83999999999955
vertex 215.74336807239268 613.5817506238976 72.83999999999956
vertex 215.74336807239274 613.5817506238976 78.83999999999956
endloop
endfacet
facet normal 0.0 1.0 0.0
outer loop
vertex 224.58343167285219 622.421814224357 78.83999999999955
vertex 283.49973265364633 622.421814224357 72.8399999999996
vertex 224.58343167285219 622.421814224357 72.83999999999955
endloop
endfacet
facet normal 0.0 1.0 0.0
outer loop
vertex 283.49973265364633 622.421814224357 72.8399999999996
vertex 224.58343167285219 622.421814224357 78.83999999999955
vertex 283.49973265364633 622.421814224357 78.83999999999958
endloop
endfacet
facet normal 0.7071067811865511 -0.707106781186544 5.3198030784712385e-15
outer loop
vertex 292.33979625410535 554.6654496431029 72.83999999999963
vertex 283.49973265364633 545.8253860426438 78.83999999999952
vertex 283.49973265364633 545.8253860426438 72.8399999999996
endloop
endfacet
facet normal 0.7071067811865511 -0.707106781186544 5.3198030784712385e-15
outer loop
vertex 283.49973265364633 545.8253860426438 78.83999999999952
vertex 292.33979625410535 554.6654496431029 72.83999999999963
vertex 292.3397962541053 554.6654496431029 78.83999999999958
endloop
endfacet
facet normal 1.0 -3.8291154544371554e-16 3.759955310063891e-15
outer loop
vertex 292.33979625410535 613.5817506238975 72.83999999999962
vertex 292.3397962541053 554.6654496431029 78.83999999999958
vertex 292.33979625410535 554.6654496431029 72.83999999999963
endloop
endfacet
facet normal 1.0 -3.8291154544371554e-16 3.759955310063891e-15
outer loop
vertex 292.3397962541053 554.6654496431029 78.83999999999958
vertex 292.33979625410535 613.5817506238975 72.83999999999962
vertex 292.33979625410535 613.5817506238975 78.83999999999958
endloop
endfacet
facet normal -1.0 7.658230908874432e-16 7.519910620127725e-15
outer loop
vertex 215.74336807239274 613.5817506238976 78.83999999999956
vertex 215.74336807239263 554.665449643103 72.83999999999965
vertex 215.74336807239268 554.665449643103 78.83999999999965
endloop
endfacet
facet normal -1.0 7.658230908874432e-16 7.519910620127725e-15
outer loop
vertex 215.74336807239263 554.665449643103 72.83999999999965
vertex 215.74336807239274 613.5817506238976 78.83999999999956
vertex 215.74336807239268 613.5817506238976 72.83999999999956
endloop
endfacet
facet normal -0.7071067811865339 -0.7071067811865611 -2.5939535671874435e-15
outer loop
vertex 224.58343167285224 545.8253860426437 78.83999999999942
vertex 215.74336807239263 554.665449643103 72.83999999999965
vertex 224.58343167285224 545.8253860426438 72.83999999999952
endloop
endfacet
facet normal -0.7071067811865339 -0.7071067811865611 -2.5939535671874435e-15
outer loop
vertex 215.74336807239263 554.665449643103 72.83999999999965
vertex 224.58343167285224 545.8253860426437 78.83999999999942
vertex 215.74336807239268 554.665449643103 78.83999999999965
endloop
endfacet
facet normal 7.658230908874496e-16 -1.0 -7.519910620127823e-15
outer loop
vertex 283.49973265364633 545.8253860426438 72.8399999999996
vertex 224.58343167285224 545.8253860426437 78.83999999999942
vertex 224.58343167285224 545.8253860426438 72.83999999999952
endloop
endfacet
facet normal 7.658230908874496e-16 -1.0 -7.519910620127823e-15
outer loop
vertex 224.58343167285224 545.8253860426437 78.83999999999942
vertex 283.49973265364633 545.8253860426438 72.8399999999996
vertex 283.49973265364633 545.8253860426438 78.83999999999952
endloop
endfacet
facet normal -3.5398982407377814e-16 4.877113521630296e-17 1.0
outer loop
vertex 214.09658918419623 553.4645628208921 72.83999999999953
vertex 215.74336807239263 554.665449643103 72.83999999999965
vertex 214.09658918419623 614.8357096758864 72.83999999999955
endloop
endfacet
facet normal -3.5398982407377814e-16 4.877113521630296e-17 1.0
outer loop
vertex 215.74336807239263 554.665449643103 72.83999999999965
vertex 214.09658918419623 553.4645628208921 72.83999999999953
vertex 223.30498876800834 544.2561632370805 72.8399999999994
endloop
endfacet
facet normal -3.5398982407377814e-16 4.877113521630296e-17 1.0
outer loop
vertex 215.74336807239263 554.665449643103 72.83999999999965
vertex 223.30498876800834 544.2561632370805 72.8399999999994
vertex 224.58343167285224 545.8253860426438 72.83999999999952
endloop
endfacet
facet normal -3.5398982407377814e-16 4.877113521630296e-17 1.0
outer loop
vertex 224.58343167285224 545.8253860426438 72.83999999999952
vertex 223.30498876800834 544.2561632370805 72.8399999999994
vertex 284.67613562300204 544.2561632370804 72.83999999999945
endloop
endfacet
facet normal -3.5398982407377814e-16 4.877113521630296e-17 1.0
outer loop
vertex 224.58343167285224 545.8253860426438 72.83999999999952
vertex 284.67613562300204 544.2561632370804 72.83999999999945
vertex 283.49973265364633 545.8253860426438 72.8399999999996
endloop
endfacet
facet normal -3.5398982407377814e-16 4.877113521630296e-17 1.0
outer loop
vertex 283.49973265364633 545.8253860426438 72.8399999999996
vertex 284.67613562300204 544.2561632370804 72.83999999999945
vertex 292.33979625410535 554.6654496431029 72.83999999999963
endloop
endfacet
facet normal -3.5398982407377814e-16 4.877113521630296e-17 1.0
outer loop
vertex 292.33979625410535 554.6654496431029 72.83999999999963
vertex 284.67613562300204 544.2561632370804 72.83999999999945
vertex 293.88453520681355 553.464562820892 72.8399999999995
endloop
endfacet
facet normal -3.5398982407377814e-16 4.877113521630296e-17 1.0
outer loop
vertex 292.33979625410535 554.6654496431029 72.83999999999963
vertex 293.88453520681355 553.464562820892 72.8399999999995
vertex 292.33979625410535 613.5817506238975 72.83999999999962
endloop
endfacet
facet normal -3.5398982407377814e-16 4.877113521630296e-17 1.0
outer loop
vertex 292.33979625410535 613.5817506238975 72.83999999999962
vertex 293.88453520681355 553.464562820892 72.8399999999995
vertex 293.8845352068135 614.8357096758864 72.8399999999995
endloop
endfacet
facet normal -3.5398982407377814e-16 4.877113521630296e-17 1.0
outer loop
vertex 214.09658918419623 614.8357096758864 72.83999999999955
vertex 215.74336807239268 613.5817506238976 72.83999999999956
vertex 223.3049887680083 624.0441092596984 72.8399999999994
endloop
endfacet
facet normal -3.5398982407377814e-16 4.877113521630296e-17 1.0
outer loop
vertex 215.74336807239268 613.5817506238976 72.83999999999956
vertex 214.09658918419623 614.8357096758864 72.83999999999955
vertex 215.74336807239263 554.665449643103 72.83999999999965
endloop
endfacet
facet normal -3.5398982407377814e-16 4.877113521630296e-17 1.0
outer loop
vertex 223.3049887680083 624.0441092596984 72.8399999999994
vertex 215.74336807239268 613.5817506238976 72.83999999999956
vertex 224.58343167285219 622.421814224357 72.83999999999955
endloop
endfacet
facet normal -3.5398982407377814e-16 4.877113521630296e-17 1.0
outer loop
vertex 223.3049887680083 624.0441092596984 72.8399999999994
vertex 224.58343167285219 622.421814224357 72.83999999999955
vertex 284.67613562300204 624.0441092596983 72.83999999999945
endloop
endfacet
facet normal -3.5398982407377814e-16 4.877113521630296e-17 1.0
outer loop
vertex 284.67613562300204 624.0441092596983 72.83999999999945
vertex 224.58343167285219 622.421814224357 72.83999999999955
vertex 283.49973265364633 622.421814224357 72.8399999999996
endloop
endfacet
facet normal -3.5398982407377814e-16 4.877113521630296e-17 1.0
outer loop
vertex 284.67613562300204 624.0441092596983 72.83999999999945
vertex 283.49973265364633 622.421814224357 72.8399999999996
vertex 292.33979625410535 613.5817506238975 72.83999999999962
endloop
endfacet
facet normal -3.5398982407377814e-16 4.877113521630296e-17 1.0
outer loop
vertex 284.67613562300204 624.0441092596983 72.83999999999945
vertex 292.33979625410535 613.5817506238975 72.83999999999962
vertex 293.8845352068135 614.8357096758864 72.8399999999995
endloop
endfacet
facet normal 0.7071067811865638 0.7071067811865313 -9.123332279427308e-29
outer loop
vertex 283.49973265364633 622.421814224357 72.8399999999996
vertex 292.33979625410535 613.5817506238975 78.83999999999958
vertex 292.33979625410535 613.5817506238975 72.83999999999962
endloop
endfacet
facet normal 0.7071067811865638 0.7071067811865313 -9.123332279427308e-29
outer loop
vertex 292.33979625410535 613.5817506238975 78.83999999999958
vertex 283.49973265364633 622.421814224357 72.8399999999996
vertex 283.49973265364633 622.421814224357 78.83999999999958
endloop
endfacet
facet normal 1.322467040091427e-16 1.3224670400914251e-16 1.0
outer loop
vertex 234.29056219550492 561.6561632370802 85.15999999999869
vertex 231.79056219550495 604.1561632370804 85.15999999999869
vertex 231.79056219550495 564.1561632370802 85.15999999999869
endloop
endfacet
facet normal 1.322467040091427e-16 1.3224670400914251e-16 1.0
outer loop
vertex 231.79056219550495 604.1561632370804 85.15999999999869
vertex 234.29056219550492 561.6561632370802 85.15999999999869
vertex 234.29056219550492 606.6561632370802 85.15999999999869
endloop
endfacet
facet normal 1.322467040091427e-16 1.3224670400914251e-16 1.0
outer loop
vertex 234.29056219550492 606.6561632370802 85.15999999999869
vertex 234.29056219550492 561.6561632370802 85.15999999999869
vertex 234.290562195506 564.1561632370804 85.15999999999879
endloop
endfacet
facet normal 1.322467040091427e-16 1.3224670400914251e-16 1.0
outer loop
vertex 234.290562195506 564.1561632370804 85.15999999999879
vertex 234.29056219550492 561.6561632370802 85.15999999999869
vertex 274.290562195505 561.6561632370802 85.15999999999869
endloop
endfacet
facet normal 1.322467040091427e-16 1.3224670400914251e-16 1.0
outer loop
vertex 234.290562195506 564.1561632370804 85.15999999999879
vertex 274.290562195505 561.6561632370802 85.15999999999869
vertex 274.29056219550625 564.1561632370821 85.15999999999882
endloop
endfacet
facet normal 1.322467040091427e-16 1.3224670400914251e-16 1.0
outer loop
vertex 274.29056219550625 564.1561632370821 85.15999999999882
vertex 274.290562195505 561.6561632370802 85.15999999999869
vertex 276.79056219550495 564.1561632370802 85.15999999999867
endloop
endfacet
facet normal 1.322467040091427e-16 1.3224670400914251e-16 1.0
outer loop
vertex 274.29056219550625 564.1561632370821 85.15999999999882
vertex 276.79056219550495 564.1561632370802 85.15999999999867
vertex 274.29056219550625 604.1561632370804 85.15999999999876
endloop
endfacet
facet normal 1.322467040091427e-16 1.3224670400914251e-16 1.0
outer loop
vertex 234.29056219550492 606.6561632370802 85.15999999999869
vertex 234.290562195506 604.1561632370799 85.15999999999838
vertex 274.290562195505 606.6561632370802 85.15999999999867
endloop
endfacet
facet normal 1.322467040091427e-16 1.3224670400914251e-16 1.0
outer loop
vertex 234.290562195506 604.1561632370799 85.15999999999838
vertex 234.29056219550492 606.6561632370802 85.15999999999869
vertex 234.290562195506 564.1561632370804 85.15999999999879
endloop
endfacet
facet normal 1.322467040091427e-16 1.3224670400914251e-16 1.0
outer loop
vertex 274.290562195505 606.6561632370802 85.15999999999867
vertex 234.290562195506 604.1561632370799 85.15999999999838
vertex 274.29056219550625 604.1561632370804 85.15999999999876
endloop
endfacet
facet normal 1.322467040091427e-16 1.3224670400914251e-16 1.0
outer loop
vertex 274.290562195505 606.6561632370802 85.15999999999867
vertex 274.29056219550625 604.1561632370804 85.15999999999876
vertex 276.79056219550495 604.1561632370804 85.15999999999867
endloop
endfacet
facet normal 1.322467040091427e-16 1.3224670400914251e-16 1.0
outer loop
vertex 276.79056219550495 604.1561632370804 85.15999999999867
vertex 274.29056219550625 604.1561632370804 85.15999999999876
vertex 276.79056219550495 564.1561632370802 85.15999999999867
endloop
endfacet
facet normal -0.7071067811865671 -0.707106781186528 -4.396531469800033e-17
outer loop
vertex 283.49973265364633 620.9218142243569 78.83999999999958
vertex 290.8397962541054 613.5817506238975 72.83999999999962
vertex 290.8397962541054 613.5817506238975 78.83999999999958
endloop
endfacet
facet normal -0.7071067811865671 -0.707106781186528 -4.396531469800033e-17
outer loop
vertex 290.8397962541054 613.5817506238975 72.83999999999962
vertex 283.49973265364633 620.9218142243569 78.83999999999958
vertex 283.49973265364633 620.9218142243569 72.8399999999996
endloop
endfacet
facet normal -7.627242551971232e-16 -0.6953973940448757 0.7186253991862491
outer loop
vertex 225.1798992026694 612.9852830940804 65.15999999999953
vertex 283.49973265364633 620.9218142243569 72.8399999999996
vertex 224.58343167285219 620.9218142243569 72.83999999999955
endloop
endfacet
facet normal -7.627242551971232e-16 -0.6953973940448757 0.7186253991862491
outer loop
vertex 283.49973265364633 620.9218142243569 72.8399999999996
vertex 225.1798992026694 612.9852830940804 65.15999999999953
vertex 282.90326512382893 612.9852830940804 65.1599999999996
endloop
endfacet
facet normal 0.0 -1.0 0.0
outer loop
vertex 283.49973265364633 620.9218142243569 72.8399999999996
vertex 224.58343167285219 620.9218142243569 78.83999999999955
vertex 224.58343167285219 620.9218142243569 72.83999999999955
endloop
endfacet
facet normal 0.0 -1.0 0.0
outer loop
vertex 224.58343167285219 620.9218142243569 78.83999999999955
vertex 283.49973265364633 620.9218142243569 72.8399999999996
vertex 283.49973265364633 620.9218142243569 78.83999999999958
endloop
endfacet
facet normal 0.6953973940448744 4.19918721487059e-16 0.7186253991862503
outer loop
vertex 225.1798992026694 555.2619171729203 65.15999999999951
vertex 217.24336807239266 613.5817506238976 72.83999999999956
vertex 217.24336807239266 554.665449643103 72.83999999999963
endloop
endfacet
facet normal 0.6953973940448744 4.19918721487059e-16 0.7186253991862503
outer loop
vertex 217.24336807239266 613.5817506238976 72.83999999999956
vertex 225.1798992026694 555.2619171729203 65.15999999999951
vertex 225.1798992026694 612.9852830940804 65.15999999999953
endloop
endfacet
facet normal 1.0 -1.0086320268662107e-29 -7.519910620127725e-15
outer loop
vertex 217.24336807239266 613.5817506238976 72.83999999999956
vertex 217.2433680723927 554.665449643103 78.83999999999963
vertex 217.24336807239266 554.665449643103 72.83999999999963
endloop
endfacet
facet normal 1.0 -1.0086320268662107e-29 -7.519910620127725e-15
outer loop
vertex 217.2433680723927 554.665449643103 78.83999999999963
vertex 217.24336807239266 613.5817506238976 72.83999999999956
vertex 217.2433680723927 613.5817506238976 78.83999999999956
endloop
endfacet
facet normal -4.146835130636882e-16 0.6953973940448857 0.7186253991862396
outer loop
vertex 283.49973265364633 547.3253860426438 72.8399999999996
vertex 225.1798992026694 555.2619171729203 65.15999999999951
vertex 224.58343167285224 547.3253860426438 72.83999999999956
endloop
endfacet
facet normal -4.146835130636882e-16 0.6953973940448857 0.7186253991862396
outer loop
vertex 225.1798992026694 555.2619171729203 65.15999999999951
vertex 283.49973265364633 547.3253860426438 72.8399999999996
vertex 282.903265123829 555.2619171729203 65.15999999999954
endloop
endfacet
facet normal -7.658230908874439e-16 1.0 7.519910620127822e-15
outer loop
vertex 224.58343167285224 547.3253860426438 78.83999999999946
vertex 283.49973265364633 547.3253860426438 72.8399999999996
vertex 224.58343167285224 547.3253860426438 72.83999999999956
endloop
endfacet
facet normal -7.658230908874439e-16 1.0 7.519910620127822e-15
outer loop
vertex 283.49973265364633 547.3253860426438 72.8399999999996
vertex 224.58343167285224 547.3253860426438 78.83999999999946
vertex 283.49973265364633 547.3253860426438 78.83999999999952
endloop
endfacet
facet normal -0.6953973940448867 -5.460741102116097e-16 0.7186253991862387
outer loop
vertex 282.903265123829 555.2619171729203 65.15999999999954
vertex 290.8397962541054 613.5817506238975 72.83999999999962
vertex 282.90326512382893 612.9852830940804 65.1599999999996
endloop
endfacet
facet normal -0.6953973940448867 -5.460741102116097e-16 0.7186253991862387
outer loop
vertex 290.8397962541054 613.5817506238975 72.83999999999962
vertex 282.903265123829 555.2619171729203 65.15999999999954
vertex 290.8397962541054 554.6654496431029 72.83999999999962
endloop
endfacet
facet normal -1.0 3.8291154544371623e-16 -3.759955310063892e-15
outer loop
vertex 290.8397962541054 613.5817506238975 78.83999999999958
vertex 290.8397962541054 554.6654496431029 72.83999999999962
vertex 290.83979625410535 554.6654496431029 78.83999999999956
endloop
endfacet
facet normal -1.0 3.8291154544371623e-16 -3.759955310063892e-15
outer loop
vertex 290.8397962541054 554.6654496431029 72.83999999999962
vertex 290.8397962541054 613.5817506238975 78.83999999999958
vertex 290.8397962541054 613.5817506238975 72.83999999999962
endloop
endfacet
facet normal -0.7071067811865497 0.7071067811865454 -5.363768393169366e-15
outer loop
vertex 290.83979625410535 554.6654496431029 78.83999999999956
vertex 283.49973265364633 547.3253860426438 72.8399999999996
vertex 283.49973265364633 547.3253860426438 78.83999999999952
endloop
endfacet
facet normal -0.7071067811865497 0.7071067811865454 -5.363768393169366e-15
outer loop
vertex 283.49973265364633 547.3253860426438 72.8399999999996
vertex 290.83979625410535 554.6654496431029 78.83999999999956
vertex 290.8397962541054 554.6654496431029 72.83999999999962
endloop
endfacet
facet normal 0.7071067811865313 0.7071067811865638 2.6379188818859648e-15
outer loop
vertex 217.24336807239266 554.665449643103 72.83999999999963
vertex 224.58343167285224 547.3253860426438 78.83999999999946
vertex 224.58343167285224 547.3253860426438 72.83999999999956
endloop
endfacet
facet normal 0.7071067811865313 0.7071067811865638 2.6379188818859648e-15
outer loop
vertex 224.58343167285224 547.3253860426438 78.83999999999946
vertex 217.24336807239266 554.665449643103 72.83999999999963
vertex 217.2433680723927 554.665449643103 78.83999999999963
endloop
endfacet
facet normal 0.7071067811865399 -0.7071067811865551 -2.593953567188419e-15
outer loop
vertex 224.58343167285219 620.9218142243569 78.83999999999955
vertex 217.24336807239266 613.5817506238976 72.83999999999956
vertex 224.58343167285219 620.9218142243569 72.83999999999955
endloop
endfacet
facet normal 0.7071067811865399 -0.7071067811865551 -2.593953567188419e-15
outer loop
vertex 217.24336807239266 613.5817506238976 72.83999999999956
vertex 224.58343167285219 620.9218142243569 78.83999999999955
vertex 217.2433680723927 613.5817506238976 78.83999999999956
endloop
endfacet
facet normal -3.929968093105914e-16 -6.72226952377749e-16 1.0
outer loop
vertex 215.74336807239268 554.665449643103 78.83999999999965
vertex 217.2433680723927 554.665449643103 78.83999999999963
vertex 215.74336807239274 613.5817506238976 78.83999999999956
endloop
endfacet
facet normal -3.929968093105914e-16 -6.72226952377749e-16 1.0
outer loop
vertex 217.2433680723927 554.665449643103 78.83999999999963
vertex 215.74336807239268 554.665449643103 78.83999999999965
vertex 224.58343167285224 545.8253860426437 78.83999999999942
endloop
endfacet
facet normal -3.929968093105914e-16 -6.72226952377749e-16 1.0
outer loop
vertex 217.2433680723927 554.665449643103 78.83999999999963
vertex 224.58343167285224 545.8253860426437 78.83999999999942
vertex 224.58343167285224 547.3253860426438 78.83999999999946
endloop
endfacet
facet normal -3.929968093105914e-16 -6.72226952377749e-16 1.0
outer loop
vertex 224.58343167285224 547.3253860426438 78.83999999999946
vertex 224.58343167285224 545.8253860426437 78.83999999999942
vertex 283.49973265364633 545.8253860426438 78.83999999999952
endloop
endfacet
facet normal -3.929968093105914e-16 -6.72226952377749e-16 1.0
outer loop
vertex 224.58343167285224 547.3253860426438 78.83999999999946
vertex 283.49973265364633 545.8253860426438 78.83999999999952
vertex 283.49973265364633 547.3253860426438 78.83999999999952
endloop
endfacet
facet normal -3.929968093105914e-16 -6.72226952377749e-16 1.0
outer loop
vertex 283.49973265364633 547.3253860426438 78.83999999999952
vertex 283.49973265364633 545.8253860426438 78.83999999999952
vertex 292.3397962541053 554.6654496431029 78.83999999999958
endloop
endfacet
facet normal -3.929968093105914e-16 -6.72226952377749e-16 1.0
outer loop
vertex 283.49973265364633 547.3253860426438 78.83999999999952
vertex 292.3397962541053 554.6654496431029 78.83999999999958
vertex 290.83979625410535 554.6654496431029 78.83999999999956
endloop
endfacet
facet normal -3.929968093105914e-16 -6.72226952377749e-16 1.0
outer loop
vertex 290.83979625410535 554.6654496431029 78.83999999999956
vertex 292.3397962541053 554.6654496431029 78.83999999999958
vertex 290.8397962541054 613.5817506238975 78.83999999999958
endloop
endfacet
facet normal -3.929968093105914e-16 -6.72226952377749e-16 1.0
outer loop
vertex 215.74336807239274 613.5817506238976 78.83999999999956
vertex 217.2433680723927 613.5817506238976 78.83999999999956
vertex 224.58343167285219 622.421814224357 78.83999999999955
endloop
endfacet
facet normal -3.929968093105914e-16 -6.72226952377749e-16 1.0
outer loop
vertex 217.2433680723927 613.5817506238976 78.83999999999956
vertex 215.74336807239274 613.5817506238976 78.83999999999956
vertex 217.2433680723927 554.665449643103 78.83999999999963
endloop
endfacet
facet normal -3.929968093105914e-16 -6.72226952377749e-16 1.0
outer loop
vertex 224.58343167285219 622.421814224357 78.83999999999955
vertex 217.2433680723927 613.5817506238976 78.83999999999956
vertex 224.58343167285219 620.9218142243569 78.83999999999955
endloop
endfacet
facet normal -3.929968093105914e-16 -6.72226952377749e-16 1.0
outer loop
vertex 224.58343167285219 622.421814224357 78.83999999999955
vertex 224.58343167285219 620.9218142243569 78.83999999999955
vertex 283.49973265364633 620.9218142243569 78.83999999999958
endloop
endfacet
facet normal -3.929968093105914e-16 -6.72226952377749e-16 1.0
outer loop
vertex 224.58343167285219 622.421814224357 78.83999999999955
vertex 283.49973265364633 620.9218142243569 78.83999999999958
vertex 283.49973265364633 622.421814224357 78.83999999999958
endloop
endfacet
facet normal -3.929968093105914e-16 -6.72226952377749e-16 1.0
outer loop
vertex 283.49973265364633 622.421814224357 78.83999999999958
vertex 283.49973265364633 620.9218142243569 78.83999999999958
vertex 292.33979625410535 613.5817506238975 78.83999999999958
endloop
endfacet
facet normal -3.929968093105914e-16 -6.72226952377749e-16 1.0
outer loop
vertex 292.33979625410535 613.5817506238975 78.83999999999958
vertex 283.49973265364633 620.9218142243569 78.83999999999958
vertex 290.8397962541054 613.5817506238975 78.83999999999958
endloop
endfacet
facet normal -3.929968093105914e-16 -6.72226952377749e-16 1.0
outer loop
vertex 292.33979625410535 613.5817506238975 78.83999999999958
vertex 290.8397962541054 613.5817506238975 78.83999999999958
vertex 292.3397962541053 554.6654496431029 78.83999999999958
endloop
endfacet
facet normal -0.4149804920876918 -0.414980492087719 0.8096804199023784
outer loop
vertex 224.58343167285224 547.3253860426438 72.83999999999956
vertex 231.79056219550495 564.1561632370802 85.15999999999869
vertex 217.24336807239266 554.665449643103 72.83999999999963
endloop
endfacet
facet normal -0.4149804920876918 -0.414980492087719 0.8096804199023784
outer loop
vertex 231.79056219550495 564.1561632370802 85.15999999999869
vertex 224.58343167285224 547.3253860426438 72.83999999999956
vertex 234.29056219550492 561.6561632370802 85.15999999999869
endloop
endfacet
facet normal 0.420672902677181 -0.42067290267717966 0.8037839373278811
outer loop
vertex 283.49973265364633 547.3253860426438 72.8399999999996
vertex 276.79056219550495 564.1561632370802 85.15999999999867
vertex 274.290562195505 561.6561632370802 85.15999999999869
endloop
endfacet
facet normal 0.420672902677181 -0.42067290267717966 0.8037839373278811
outer loop
vertex 276.79056219550495 564.1561632370802 85.15999999999867
vertex 283.49973265364633 547.3253860426438 72.8399999999996
vertex 290.8397962541054 554.6654496431029 72.83999999999962
endloop
endfacet
facet normal 0.42142580216105585 0.42142580216103637 0.8029947612194227
outer loop
vertex 276.79056219550495 604.1561632370804 85.15999999999867
vertex 283.49973265364633 620.9218142243569 72.8399999999996
vertex 274.290562195505 606.6561632370802 85.15999999999867
endloop
endfacet
facet normal 0.42142580216105585 0.42142580216103637 0.8029947612194227
outer loop
vertex 283.49973265364633 620.9218142243569 72.8399999999996
vertex 276.79056219550495 604.1561632370804 85.15999999999867
vertex 290.8397962541054 613.5817506238975 72.83999999999962
endloop
endfacet
facet normal -0.415718536933243 0.41571853693325345 0.8089228616500828
outer loop
vertex 231.79056219550495 604.1561632370804 85.15999999999869
vertex 224.58343167285219 620.9218142243569 72.83999999999955
vertex 217.24336807239266 613.5817506238976 72.83999999999956
endloop
endfacet
facet normal -0.415718536933243 0.41571853693325345 0.8089228616500828
outer loop
vertex 224.58343167285219 620.9218142243569 72.83999999999955
vertex 231.79056219550495 604.1561632370804 85.15999999999869
vertex 234.29056219550492 606.6561632370802 85.15999999999869
endloop
endfacet
endsolid outside_2013
