solid outside_2013
facet normal -0.6046326328449102 0.6046326328449417 -0.5184966331597782
outer loop
vertex 82.69056219550572 571.0006057139865 18.88999999999931
vertex 88.80326512382908 562.1063596498249 1.3900000000000308
vertex 80.19056219550575 568.5006057139865 18.889999999999155
endloop
endfacet
facet normal 7.266884730246786e-16 -0.631227030467427 -0.7755981150101345
outer loop
vertex 31.079899202669523 562.1063596498249 1.3899999999999986
vertex 89.39973265364648 552.6698285195483 9.070000000000071
vertex 30.48343167285228 552.6698285195483 9.069999999999995
endloop
endfacet
facet normal 7.266884730246786e-16 -0.631227030467427 -0.7755981150101345
outer loop
vertex 89.39973265364648 552.6698285195483 9.070000000000071
vertex 31.079899202669523 562.1063596498249 1.3899999999999986
vertex 88.80326512382908 562.1063596498249 1.3900000000000308
endloop
endfacet
facet normal 0.3236009779864987 -0.8872632442390898 0.3287040347615266
outer loop
vertex 37.690562195505066 571.0006057139847 18.889999999999212
vertex 21.643368072392803 561.5098921200074 9.07000000000004
vertex 31.079899202669523 562.1063596498249 1.3899999999999986
endloop
endfacet
facet normal 9.373272608540237e-16 0.6312270304674218 -0.7755981150101389
outer loop
vertex 89.39973265364644 629.2662567012616 9.07000000000008
vertex 31.079899202669523 619.8297255709849 1.3899999999999986
vertex 30.48343167285233 629.2662567012616 9.070000000000016
endloop
endfacet
facet normal 9.373272608540237e-16 0.6312270304674218 -0.7755981150101389
outer loop
vertex 31.079899202669523 619.8297255709849 1.3899999999999986
vertex 89.39973265364644 629.2662567012616 9.07000000000008
vertex 88.80326512382904 619.8297255709849 1.3900000000000743
endloop
endfacet
facet normal -1.3028234112795177e-16 -6.304989329365654e-17 -1.0
outer loop
vertex 19.99658918419635 621.6801521527908 70.69999999999993
vertex 21.643368072392747 620.426193100802 70.70000000000005
vertex 19.99658918419635 560.3090052977965 70.69999999999993
endloop
endfacet
facet normal -1.3028234112795177e-16 -6.304989329365654e-17 -1.0
outer loop
vertex 21.643368072392747 620.426193100802 70.70000000000005
vertex 19.99658918419635 621.6801521527908 70.69999999999993
vertex 29.204988768008427 630.8885517366028 70.6999999999998
endloop
endfacet
facet normal -1.3028234112795177e-16 -6.304989329365654e-17 -1.0
outer loop
vertex 21.643368072392747 620.426193100802 70.70000000000005
vertex 29.204988768008427 630.8885517366028 70.6999999999998
vertex 30.48343167285234 629.2662567012616 70.69999999999992
endloop
endfacet
facet normal -1.3028234112795177e-16 -6.304989329365654e-17 -1.0
outer loop
vertex 30.48343167285234 629.2662567012616 70.69999999999992
vertex 29.204988768008427 630.8885517366028 70.6999999999998
vertex 90.57613562300216 630.8885517366028 70.69999999999985
endloop
endfacet
facet normal -1.3028234112795177e-16 -6.304989329365654e-17 -1.0
outer loop
vertex 30.48343167285234 629.2662567012616 70.69999999999992
vertex 90.57613562300216 630.8885517366028 70.69999999999985
vertex 89.39973265364632 629.2662567012616 70.69999999999996
endloop
endfacet
facet normal -1.3028234112795177e-16 -6.304989329365654e-17 -1.0
outer loop
vertex 89.39973265364632 629.2662567012616 70.69999999999996
vertex 90.57613562300216 630.8885517366028 70.69999999999985
vertex 98.23979625410533 620.426193100802 70.7
endloop
endfacet
facet normal -1.3028234112795177e-16 -6.304989329365654e-17 -1.0
outer loop
vertex 98.23979625410533 620.426193100802 70.7
vertex 90.57613562300216 630.8885517366028 70.69999999999985
vertex 99.78453520681362 621.6801521527908 70.69999999999989
endloop
endfacet
facet normal -1.3028234112795177e-16 -6.304989329365654e-17 -1.0
outer loop
vertex 98.23979625410533 620.426193100802 70.7
vertex 99.78453520681362 621.6801521527908 70.69999999999989
vertex 98.23979625410533 561.5098921200074 70.7
endloop
endfacet
facet normal -1.3028234112795177e-16 -6.304989329365654e-17 -1.0
outer loop
vertex 19.99658918419635 560.3090052977965 70.69999999999993
vertex 21.643368072392747 561.5098921200074 70.70000000000005
vertex 29.204988768008427 551.1006057139849 70.6999999999998
endloop
endfacet
facet normal -1.3028234112795177e-16 -6.304989329365654e-17 -1.0
outer loop
vertex 21.643368072392747 561.5098921200074 70.70000000000005
vertex 19.99658918419635 560.3090052977965 70.69999999999993
vertex 21.643368072392747 620.426193100802 70.70000000000005
endloop
endfacet
facet normal -1.3028234112795177e-16 -6.304989329365654e-17 -1.0
outer loop
vertex 29.204988768008427 551.1006057139849 70.6999999999998
vertex 21.643368072392747 561.5098921200074 70.70000000000005
vertex 30.48343167285234 552.6698285195483 70.69999999999992
endloop
endfacet
facet normal -1.3028234112795177e-16 -6.304989329365654e-17 -1.0
outer loop
vertex 29.204988768008427 551.1006057139849 70.6999999999998
vertex 30.48343167285234 552.6698285195483 70.69999999999992
vertex 90.57613562300216 551.1006057139849 70.69999999999985
endloop
endfacet
facet normal -1.3028234112795177e-16 -6.304989329365654e-17 -1.0
outer loop
vertex 90.57613562300216 551.1006057139849 70.69999999999985
vertex 30.48343167285234 552.6698285195483 70.69999999999992
vertex 89.39973265364632 552.6698285195483 70.69999999999996
endloop
endfacet
facet normal -1.3028234112795177e-16 -6.304989329365654e-17 -1.0
outer loop
vertex 90.57613562300216 551.1006057139849 70.69999999999985
vertex 89.39973265364632 552.6698285195483 70.69999999999996
vertex 98.23979625410533 561.5098921200074 70.7
endloop
endfacet
facet normal -1.3028234112795177e-16 -6.304989329365654e-17 -1.0
outer loop
vertex 90.57613562300216 551.1006057139849 70.69999999999985
vertex 98.23979625410533 561.5098921200074 70.7
vertex 99.78453520681362 560.3090052977965 70.69999999999989
endloop
endfacet
facet normal -1.3028234112795177e-16 -6.304989329365654e-17 -1.0
outer loop
vertex 99.78453520681362 560.3090052977965 70.69999999999989
vertex 98.23979625410533 561.5098921200074 70.7
vertex 99.78453520681362 621.6801521527908 70.69999999999989
endloop
endfacet
facet normal 0.0 1.0 0.0
outer loop
vertex 30.48343167285234 629.2662567012616 70.69999999999992
vertex 89.39973265364644 629.2662567012616 9.07000000000008
vertex 30.48343167285233 629.2662567012616 9.070000000000016
endloop
endfacet
facet normal 0.0 1.0 0.0
outer loop
vertex 89.39973265364644 629.2662567012616 9.07000000000008
vertex 30.48343167285234 629.2662567012616 70.69999999999992
vertex 89.39973265364632 629.2662567012616 70.69999999999996
endloop
endfacet
facet normal 0.7071067811865555 -0.7071067811865397 1.81447809190722e-15
outer loop
vertex 98.23979625410549 561.5098921200074 9.070000000000112
vertex 89.39973265364632 552.6698285195483 70.69999999999996
vertex 89.39973265364648 552.6698285195483 9.070000000000071
endloop
endfacet
facet normal 0.7071067811865555 -0.7071067811865397 1.81447809190722e-15
outer loop
vertex 89.39973265364632 552.6698285195483 70.69999999999996
vertex 98.23979625410549 561.5098921200074 9.070000000000112
vertex 98.23979625410533 561.5098921200074 70.7
endloop
endfacet
facet normal 9.379798908274062e-16 3.751919563309599e-16 -1.0
outer loop
vertex 88.80326512382904 619.8297255709849 1.3900000000000743
vertex 31.079899202669523 562.1063596498249 1.3899999999999986
vertex 31.079899202669523 619.8297255709849 1.3899999999999986
endloop
endfacet
facet normal 9.379798908274062e-16 3.751919563309599e-16 -1.0
outer loop
vertex 31.079899202669523 562.1063596498249 1.3899999999999986
vertex 88.80326512382904 619.8297255709849 1.3900000000000743
vertex 88.80326512382908 562.1063596498249 1.3900000000000308
endloop
endfacet
facet normal -0.707106781186541 0.7071067811865541 -2.577764078908701e-16
outer loop
vertex 21.643368072392803 620.426193100802 9.07000000000004
vertex 30.48343167285234 629.2662567012616 70.69999999999992
vertex 30.48343167285233 629.2662567012616 9.070000000000016
endloop
endfacet
facet normal -0.707106781186541 0.7071067811865541 -2.577764078908701e-16
outer loop
vertex 30.48343167285234 629.2662567012616 70.69999999999992
vertex 21.643368072392803 620.426193100802 9.07000000000004
vertex 21.643368072392747 620.426193100802 70.70000000000005
endloop
endfacet
facet normal 0.6312270304674318 5.169646843608757e-16 -0.7755981150101307
outer loop
vertex 98.23979625410549 620.426193100802 9.070000000000112
vertex 88.80326512382908 562.1063596498249 1.3900000000000308
vertex 88.80326512382904 619.8297255709849 1.3900000000000743
endloop
endfacet
facet normal 0.6312270304674318 5.169646843608757e-16 -0.7755981150101307
outer loop
vertex 88.80326512382908 562.1063596498249 1.3900000000000308
vertex 98.23979625410549 620.426193100802 9.070000000000112
vertex 98.23979625410549 561.5098921200074 9.070000000000112
endloop
endfacet
facet normal 0.5090584812816298 -0.8607319342485444 -2.3168934344162475e-15
outer loop
vertex 37.690562195505066 571.0006057139847 21.389999999999162
vertex 21.643368072392803 561.5098921200074 9.07000000000004
vertex 37.690562195505066 571.0006057139847 18.889999999999212
endloop
endfacet
facet normal 0.7071067811865633 0.7071067811865319 1.556701684016358e-15
outer loop
vertex 89.39973265364644 629.2662567012616 9.07000000000008
vertex 98.23979625410533 620.426193100802 70.7
vertex 98.23979625410549 620.426193100802 9.070000000000112
endloop
endfacet
facet normal 0.7071067811865633 0.7071067811865319 1.556701684016358e-15
outer loop
vertex 98.23979625410533 620.426193100802 70.7
vertex 89.39973265364644 629.2662567012616 9.07000000000008
vertex 89.39973265364632 629.2662567012616 70.69999999999996
endloop
endfacet
facet normal 1.0 0.0 2.200949449793488e-15
outer loop
vertex 98.23979625410549 620.426193100802 9.070000000000112
vertex 98.23979625410533 561.5098921200074 70.7
vertex 98.23979625410549 561.5098921200074 9.070000000000112
endloop
endfacet
facet normal 1.0 0.0 2.200949449793488e-15
outer loop
vertex 98.23979625410533 561.5098921200074 70.7
vertex 98.23979625410549 620.426193100802 9.070000000000112
vertex 98.23979625410533 620.426193100802 70.7
endloop
endfacet
facet normal -0.6312270304674181 2.607363495969766e-18 -0.7755981150101419
outer loop
vertex 21.643368072392803 620.426193100802 9.07000000000004
vertex 22.44371631413541 575.3778870347168 8.418629871324073
vertex 21.643368072392803 561.5098921200074 9.07000000000004
endloop
endfacet
facet normal -0.6312270304674181 2.607363495969766e-18 -0.7755981150101419
outer loop
vertex 22.44371631413541 575.3778870347168 8.418629871324073
vertex 21.643368072392803 620.426193100802 9.07000000000004
vertex 31.079899202669523 619.8297255709849 1.3899999999999986
endloop
endfacet
facet normal -0.6312270304674181 2.607363495969766e-18 -0.7755981150101419
outer loop
vertex 22.44371631413541 575.3778870347168 8.418629871324073
vertex 31.079899202669523 619.8297255709849 1.3899999999999986
vertex 30.19969746423683 575.3778870347168 2.106359566649892
endloop
endfacet
facet normal -0.6312270304674181 2.607363495969766e-18 -0.7755981150101419
outer loop
vertex 30.19969746423683 575.3778870347168 2.106359566649892
vertex 31.079899202669523 619.8297255709849 1.3899999999999986
vertex 30.19969746423683 562.3778870347168 2.106359566649892
endloop
endfacet
facet normal -0.6312270304674181 2.607363495969766e-18 -0.7755981150101419
outer loop
vertex 21.643368072392803 561.5098921200074 9.07000000000004
vertex 22.44371631413541 562.3778870347168 8.418629871324073
vertex 31.079899202669523 562.1063596498249 1.3899999999999986
endloop
endfacet
facet normal -0.6312270304674181 2.607363495969766e-18 -0.7755981150101419
outer loop
vertex 22.44371631413541 562.3778870347168 8.418629871324073
vertex 21.643368072392803 561.5098921200074 9.07000000000004
vertex 22.44371631413541 575.3778870347168 8.418629871324073
endloop
endfacet
facet normal -0.6312270304674181 2.607363495969766e-18 -0.7755981150101419
outer loop
vertex 31.079899202669523 562.1063596498249 1.3899999999999986
vertex 22.44371631413541 562.3778870347168 8.418629871324073
vertex 30.19969746423683 562.3778870347168 2.106359566649892
endloop
endfacet
facet normal -0.6312270304674181 2.607363495969766e-18 -0.7755981150101419
outer loop
vertex 31.079899202669523 562.1063596498249 1.3899999999999986
vertex 30.19969746423683 562.3778870347168 2.106359566649892
vertex 31.079899202669523 619.8297255709849 1.3899999999999986
endloop
endfacet
facet normal 0.0 -1.0 0.0
outer loop
vertex 89.39973265364648 552.6698285195483 9.070000000000071
vertex 30.48343167285234 552.6698285195483 70.69999999999992
vertex 30.48343167285228 552.6698285195483 9.069999999999995
endloop
endfacet
facet normal 0.0 -1.0 0.0
outer loop
vertex 30.48343167285234 552.6698285195483 70.69999999999992
vertex 89.39973265364648 552.6698285195483 9.070000000000071
vertex 89.39973265364632 552.6698285195483 70.69999999999996
endloop
endfacet
facet normal -0.7071067811865335 -0.7071067811865616 6.36071655834675e-17
outer loop
vertex 30.48343167285234 552.6698285195483 70.69999999999992
vertex 21.643368072392803 561.5098921200074 9.07000000000004
vertex 30.48343167285228 552.6698285195483 9.069999999999995
endloop
endfacet
facet normal -0.7071067811865335 -0.7071067811865616 6.36071655834675e-17
outer loop
vertex 21.643368072392803 561.5098921200074 9.07000000000004
vertex 30.48343167285234 552.6698285195483 70.69999999999992
vertex 21.643368072392747 561.5098921200074 70.70000000000005
endloop
endfacet
facet normal -1.0 0.0 -9.170622707472845e-16
outer loop
vertex 21.643368072392747 620.426193100802 70.70000000000005
vertex 21.643368072392803 561.5098921200074 9.07000000000004
vertex 21.643368072392747 561.5098921200074 70.70000000000005
endloop
endfacet
facet normal -1.0 0.0 -9.170622707472845e-16
outer loop
vertex 21.643368072392803 561.5098921200074 9.07000000000004
vertex 21.643368072392747 620.426193100802 70.70000000000005
vertex 21.643368072392803 620.426193100802 9.07000000000004
endloop
endfacet
facet normal 0.599932143429369 -0.5999321434293731 -0.5293041153821507
outer loop
vertex 37.690562195506146 611.0006057139836 18.889999999999244
vertex 31.079899202669523 619.8297255709849 1.3899999999999986
vertex 40.19056219550612 613.5006057139836 18.889999999999244
endloop
endfacet
facet normal -0.5992229387004462 -0.5992229387007134 0.5309084096810696
outer loop
vertex 37.690562195505066 571.0006057139847 18.889999999999212
vertex 31.079899202669523 562.1063596498249 1.3899999999999986
vertex 40.19056219550505 568.5006057139858 18.8899999999992
endloop
endfacet
facet normal 7.26688473024679e-16 -0.6312270304674271 -0.7755981150101346
outer loop
vertex 29.826309111567987 560.9303256413563 -4.511946372076636e-14
vertex 90.57613562300233 551.1006057139849 8.00000000000003
vertex 29.20498876800836 551.1006057139849 7.999999999999951
endloop
endfacet
facet normal 7.26688473024679e-16 -0.6312270304674271 -0.7755981150101346
outer loop
vertex 90.57613562300233 551.1006057139849 8.00000000000003
vertex 29.826309111567987 560.9303256413563 -4.511946372076636e-14
vertex 89.95481527944253 560.9303256413563 -1.127986593019159e-14
endloop
endfacet
facet normal 1.0 0.0 2.2009494497934874e-15
outer loop
vertex 99.78453520681376 621.6801521527908 8.000000000000076
vertex 99.78453520681362 560.3090052977965 70.69999999999989
vertex 99.78453520681376 560.3090052977965 8.000000000000076
endloop
endfacet
facet normal 1.0 0.0 2.2009494497934874e-15
outer loop
vertex 99.78453520681362 560.3090052977965 70.69999999999989
vertex 99.78453520681376 621.6801521527908 8.000000000000076
vertex 99.78453520681362 621.6801521527908 70.69999999999989
endloop
endfacet
facet normal 0.0 -1.0 0.0
outer loop
vertex 90.57613562300233 551.1006057139849 8.00000000000003
vertex 29.204988768008427 551.1006057139849 70.6999999999998
vertex 29.20498876800836 551.1006057139849 7.999999999999951
endloop
endfacet
facet normal 0.0 -1.0 0.0
outer loop
vertex 29.204988768008427 551.1006057139849 70.6999999999998
vertex 90.57613562300233 551.1006057139849 8.00000000000003
vertex 90.57613562300216 551.1006057139849 70.69999999999985
endloop
endfacet
facet normal 0.6312270304674319 5.169646843608758e-16 -0.7755981150101308
outer loop
vertex 99.78453520681376 621.6801521527908 8.000000000000076
vertex 89.95481527944253 560.9303256413563 -1.127986593019159e-14
vertex 89.95481527944249 621.0588318092313 3.3839597790574766e-14
endloop
endfacet
facet normal 0.6312270304674319 5.169646843608758e-16 -0.7755981150101308
outer loop
vertex 89.95481527944253 560.9303256413563 -1.127986593019159e-14
vertex 99.78453520681376 621.6801521527908 8.000000000000076
vertex 99.78453520681376 560.3090052977965 8.000000000000076
endloop
endfacet
facet normal -0.5194101744059603 -0.519410174405974 -0.678547081231012
outer loop
vertex 29.826309111567987 560.9303256413563 -4.511946372076636e-14
vertex 29.20498876800836 551.1006057139849 7.999999999999951
vertex 19.996589184196406 560.3090052977965 7.9999999999999964
endloop
endfacet
facet normal -1.0 0.0 -9.170622707472845e-16
outer loop
vertex 19.99658918419635 621.6801521527908 70.69999999999993
vertex 19.996589184196406 560.3090052977965 7.9999999999999964
vertex 19.99658918419635 560.3090052977965 70.69999999999993
endloop
endfacet
facet normal -1.0 0.0 -9.170622707472845e-16
outer loop
vertex 19.996589184196406 560.3090052977965 7.9999999999999964
vertex 19.99658918419635 621.6801521527908 70.69999999999993
vertex 19.996589184196406 621.6801521527908 7.9999999999999964
endloop
endfacet
facet normal 0.5194101744059809 0.5194101744059554 -0.6785470812310104
outer loop
vertex 99.78453520681376 621.6801521527908 8.000000000000076
vertex 89.95481527944249 621.0588318092313 3.3839597790574766e-14
vertex 90.57613562300229 630.8885517366028 8.00000000000004
endloop
endfacet
facet normal 0.5194101744059785 -0.5194101744059624 -0.6785470812310069
outer loop
vertex 99.78453520681376 560.3090052977965 8.000000000000076
vertex 90.57613562300233 551.1006057139849 8.00000000000003
vertex 89.95481527944253 560.9303256413563 -1.127986593019159e-14
endloop
endfacet
facet normal 0.0 1.0 0.0
outer loop
vertex 29.204988768008427 630.8885517366028 70.6999999999998
vertex 90.57613562300229 630.8885517366028 8.00000000000004
vertex 29.204988768008416 630.8885517366028 7.999999999999974
endloop
endfacet
facet normal 0.0 1.0 0.0
outer loop
vertex 90.57613562300229 630.8885517366028 8.00000000000004
vertex 29.204988768008427 630.8885517366028 70.6999999999998
vertex 90.57613562300216 630.8885517366028 70.69999999999985
endloop
endfacet
facet normal 9.373272608540235e-16 0.6312270304674217 -0.7755981150101391
outer loop
vertex 90.57613562300229 630.8885517366028 8.00000000000004
vertex 29.826309111567987 621.0588318092313 -4.511946372076636e-14
vertex 29.204988768008416 630.8885517366028 7.999999999999974
endloop
endfacet
facet normal 9.373272608540235e-16 0.6312270304674217 -0.7755981150101391
outer loop
vertex 29.826309111567987 621.0588318092313 -4.511946372076636e-14
vertex 90.57613562300229 630.8885517366028 8.00000000000004
vertex 89.95481527944249 621.0588318092313 3.3839597790574766e-14
endloop
endfacet
facet normal -0.7071067811865335 -0.7071067811865616 6.360716558346749e-17
outer loop
vertex 29.204988768008427 551.1006057139849 70.6999999999998
vertex 19.996589184196406 560.3090052977965 7.9999999999999964
vertex 29.20498876800836 551.1006057139849 7.999999999999951
endloop
endfacet
facet normal -0.7071067811865335 -0.7071067811865616 6.360716558346749e-17
outer loop
vertex 19.996589184196406 560.3090052977965 7.9999999999999964
vertex 29.204988768008427 551.1006057139849 70.6999999999998
vertex 19.99658918419635 560.3090052977965 70.69999999999993
endloop
endfacet
facet normal 0.7071067811865553 -0.7071067811865397 1.81447809190722e-15
outer loop
vertex 99.78453520681376 560.3090052977965 8.000000000000076
vertex 90.57613562300216 551.1006057139849 70.69999999999985
vertex 90.57613562300233 551.1006057139849 8.00000000000003
endloop
endfacet
facet normal 0.7071067811865553 -0.7071067811865397 1.81447809190722e-15
outer loop
vertex 90.57613562300216 551.1006057139849 70.69999999999985
vertex 99.78453520681376 560.3090052977965 8.000000000000076
vertex 99.78453520681362 560.3090052977965 70.69999999999989
endloop
endfacet
facet normal -0.5194101744059648 0.5194101744059706 -0.6785470812310114
outer loop
vertex 29.826309111567987 621.0588318092313 -4.511946372076636e-14
vertex 19.996589184196406 621.6801521527908 7.9999999999999964
vertex 29.204988768008416 630.8885517366028 7.999999999999974
endloop
endfacet
facet normal 0.7071067811865631 0.7071067811865319 1.5567016840163578e-15
outer loop
vertex 90.57613562300229 630.8885517366028 8.00000000000004
vertex 99.78453520681362 621.6801521527908 70.69999999999989
vertex 99.78453520681376 621.6801521527908 8.000000000000076
endloop
endfacet
facet normal 0.7071067811865631 0.7071067811865319 1.5567016840163578e-15
outer loop
vertex 99.78453520681362 621.6801521527908 70.69999999999989
vertex 90.57613562300229 630.8885517366028 8.00000000000004
vertex 90.57613562300216 630.8885517366028 70.69999999999985
endloop
endfacet
facet normal -0.707106781186541 0.707106781186554 -2.577764078908701e-16
outer loop
vertex 19.996589184196406 621.6801521527908 7.9999999999999964
vertex 29.204988768008427 630.8885517366028 70.6999999999998
vertex 29.204988768008416 630.8885517366028 7.999999999999974
endloop
endfacet
facet normal -0.707106781186541 0.707106781186554 -2.577764078908701e-16
outer loop
vertex 29.204988768008427 630.8885517366028 70.6999999999998
vertex 19.996589184196406 621.6801521527908 7.9999999999999964
vertex 19.99658918419635 621.6801521527908 70.69999999999993
endloop
endfacet
facet normal 1.3224670400914266e-16 1.3224670400914256e-16 1.0
outer loop
vertex 40.19056219550503 568.5006057139847 21.389999999999162
vertex 37.690562195505066 611.0006057139848 21.389999999999162
vertex 37.690562195505066 571.0006057139847 21.389999999999162
endloop
endfacet
facet normal 1.3224670400914266e-16 1.3224670400914256e-16 1.0
outer loop
vertex 37.690562195505066 611.0006057139848 21.389999999999162
vertex 40.19056219550503 568.5006057139847 21.389999999999162
vertex 40.19056219550503 613.5006057139848 21.389999999999162
endloop
endfacet
facet normal 1.3224670400914266e-16 1.3224670400914256e-16 1.0
outer loop
vertex 40.19056219550503 613.5006057139848 21.389999999999162
vertex 40.19056219550503 568.5006057139847 21.389999999999162
vertex 40.19056219550612 571.0006057139848 21.38999999999927
endloop
endfacet
facet normal 1.3224670400914266e-16 1.3224670400914256e-16 1.0
outer loop
vertex 40.19056219550612 571.0006057139848 21.38999999999927
vertex 40.19056219550503 568.5006057139847 21.389999999999162
vertex 80.19056219550511 568.5006057139847 21.389999999999162
endloop
endfacet
facet normal 1.3224670400914266e-16 1.3224670400914256e-16 1.0
outer loop
vertex 40.19056219550503 613.5006057139848 21.389999999999162
vertex 40.19056219550612 571.0006057139848 21.38999999999927
vertex 40.19056219550611 611.0006057139844 21.38999999999885
endloop
endfacet
facet normal 1.3224670400914266e-16 1.3224670400914256e-16 1.0
outer loop
vertex 40.19056219550612 571.0006057139848 21.38999999999927
vertex 80.19056219550511 568.5006057139847 21.389999999999162
vertex 80.19056219550635 571.0006057139865 21.3899999999993
endloop
endfacet
facet normal 1.3224670400914266e-16 1.3224670400914256e-16 1.0
outer loop
vertex 80.19056219550635 571.0006057139865 21.3899999999993
vertex 80.19056219550511 568.5006057139847 21.389999999999162
vertex 82.69056219550508 571.0006057139847 21.389999999999162
endloop
endfacet
facet normal 1.3224670400914266e-16 1.3224670400914256e-16 1.0
outer loop
vertex 80.19056219550635 571.0006057139865 21.3899999999993
vertex 82.69056219550508 571.0006057139847 21.389999999999162
vertex 80.19056219550635 611.0006057139848 21.389999999999247
endloop
endfacet
facet normal 1.3224670400914266e-16 1.3224670400914256e-16 1.0
outer loop
vertex 40.19056219550611 611.0006057139844 21.38999999999885
vertex 80.19056219550511 613.5006057139848 21.38999999999915
vertex 40.19056219550503 613.5006057139848 21.389999999999162
endloop
endfacet
facet normal 1.3224670400914266e-16 1.3224670400914256e-16 1.0
outer loop
vertex 80.19056219550511 613.5006057139848 21.38999999999915
vertex 40.19056219550611 611.0006057139844 21.38999999999885
vertex 80.19056219550635 611.0006057139848 21.389999999999247
endloop
endfacet
facet normal 1.3224670400914266e-16 1.3224670400914256e-16 1.0
outer loop
vertex 80.19056219550511 613.5006057139848 21.38999999999915
vertex 80.19056219550635 611.0006057139848 21.389999999999247
vertex 82.69056219550508 611.0006057139848 21.38999999999915
endloop
endfacet
facet normal 1.3224670400914266e-16 1.3224670400914256e-16 1.0
outer loop
vertex 82.69056219550508 611.0006057139848 21.38999999999915
vertex 80.19056219550635 611.0006057139848 21.389999999999247
vertex 82.69056219550508 571.0006057139847 21.389999999999162
endloop
endfacet
facet normal 9.02389274415293e-15 -1.0 -5.775291356258132e-13
outer loop
vertex 80.19056219550511 568.5006057139847 21.389999999999162
vertex 40.19056219550505 568.5006057139858 18.8899999999992
vertex 80.19056219550575 568.5006057139865 18.889999999999155
endloop
endfacet
facet normal 9.02389274415293e-15 -1.0 -5.775291356258132e-13
outer loop
vertex 40.19056219550505 568.5006057139858 18.8899999999992
vertex 80.19056219550511 568.5006057139847 21.389999999999162
vertex 40.19056219550503 568.5006057139847 21.389999999999162
endloop
endfacet
facet normal -1.0 1.3535839116229962e-14 -2.1657342585968576e-13
outer loop
vertex 37.690562195505066 611.0006057139848 21.389999999999162
vertex 37.690562195505066 571.0006057139847 18.889999999999212
vertex 37.690562195505066 571.0006057139847 21.389999999999162
endloop
endfacet
facet normal -1.0 1.3535839116229962e-14 -2.1657342585968576e-13
outer loop
vertex 37.690562195505066 571.0006057139847 18.889999999999212
vertex 37.690562195505066 611.0006057139848 21.389999999999162
vertex 37.690562195506146 611.0006057139836 18.889999999999244
endloop
endfacet
facet normal -1.3535839116230125e-14 1.0 -2.1657342585968611e-13
outer loop
vertex 40.19056219550612 613.5006057139836 18.889999999999244
vertex 80.19056219550511 613.5006057139848 21.38999999999915
vertex 80.19056219550633 613.5006057139848 18.889999999999166
endloop
endfacet
facet normal -1.3535839116230125e-14 1.0 -2.1657342585968611e-13
outer loop
vertex 80.19056219550511 613.5006057139848 21.38999999999915
vertex 40.19056219550612 613.5006057139836 18.889999999999244
vertex 40.19056219550503 613.5006057139848 21.389999999999162
endloop
endfacet
facet normal -1.0 -4.0303130527404505e-29 1.5039821240246827e-14
outer loop
vertex 80.19056219550635 611.0006057139848 21.389999999999247
vertex 80.19056219550633 571.0006057139865 19.889999999998278
vertex 80.19056219550635 571.0006057139865 21.3899999999993
endloop
endfacet
facet normal -1.0 -4.0303130527404505e-29 1.5039821240246827e-14
outer loop
vertex 80.19056219550633 571.0006057139865 19.889999999998278
vertex 80.19056219550635 611.0006057139848 21.389999999999247
vertex 80.19056219550633 611.0006057139846 19.889999999998548
endloop
endfacet
facet normal 1.0 -7.331912854624097e-15 3.699796025103005e-13
outer loop
vertex 82.69056219550572 571.0006057139865 18.88999999999931
vertex 82.69056219550508 611.0006057139848 21.38999999999915
vertex 82.69056219550508 571.0006057139847 21.389999999999162
endloop
endfacet
facet normal 1.0 -7.331912854624097e-15 3.699796025103005e-13
outer loop
vertex 82.69056219550508 611.0006057139848 21.38999999999915
vertex 82.69056219550572 571.0006057139865 18.88999999999931
vertex 82.6905621955063 611.0006057139848 18.889999999999233
endloop
endfacet
facet normal 1.0 -1.9815980688205256e-15 -2.4251711749915964e-13
outer loop
vertex 41.69056219550612 609.5006057139848 18.889999999999187
vertex 41.69056219550629 572.5006057139849 19.88999999999949
vertex 41.69056219550605 572.5006057139849 18.889999999999432
endloop
endfacet
facet normal 1.0 -1.9815980688205256e-15 -2.4251711749915964e-13
outer loop
vertex 41.69056219550629 572.5006057139849 19.88999999999949
vertex 41.69056219550612 609.5006057139848 18.889999999999187
vertex 41.69056219550636 609.5006057139843 19.8899999999988
endloop
endfacet
facet normal 1.6214807274650378e-14 1.832978213656343e-15 1.0
outer loop
vertex 80.19056219550633 571.0006057139865 19.889999999998278
vertex 41.69056219550629 572.5006057139849 19.88999999999949
vertex 40.19056219550636 571.0006057139848 19.889999999999272
endloop
endfacet
facet normal 1.6214807274650378e-14 1.832978213656343e-15 1.0
outer loop
vertex 41.69056219550629 572.5006057139849 19.88999999999949
vertex 80.19056219550633 571.0006057139865 19.889999999998278
vertex 78.69056219550626 572.5006057139865 19.889999999998295
endloop
endfacet
facet normal 1.6214807274650378e-14 1.832978213656343e-15 1.0
outer loop
vertex 78.69056219550626 572.5006057139865 19.889999999998295
vertex 80.19056219550633 571.0006057139865 19.889999999998278
vertex 78.69056219550633 609.5006057139846 19.889999999998295
endloop
endfacet
facet normal 1.6214807274650378e-14 1.832978213656343e-15 1.0
outer loop
vertex 40.19056219550635 611.0006057139844 19.889999999998853
vertex 41.69056219550636 609.5006057139843 19.8899999999988
vertex 80.19056219550633 611.0006057139846 19.889999999998548
endloop
endfacet
facet normal 1.6214807274650378e-14 1.832978213656343e-15 1.0
outer loop
vertex 41.69056219550636 609.5006057139843 19.8899999999988
vertex 40.19056219550635 611.0006057139844 19.889999999998853
vertex 40.19056219550636 571.0006057139848 19.889999999999272
endloop
endfacet
facet normal 1.6214807274650378e-14 1.832978213656343e-15 1.0
outer loop
vertex 41.69056219550636 609.5006057139843 19.8899999999988
vertex 40.19056219550636 571.0006057139848 19.889999999999272
vertex 41.69056219550629 572.5006057139849 19.88999999999949
endloop
endfacet
facet normal 1.6214807274650378e-14 1.832978213656343e-15 1.0
outer loop
vertex 80.19056219550633 611.0006057139846 19.889999999998548
vertex 41.69056219550636 609.5006057139843 19.8899999999988
vertex 78.69056219550633 609.5006057139846 19.889999999998295
endloop
endfacet
facet normal 1.6214807274650378e-14 1.832978213656343e-15 1.0
outer loop
vertex 80.19056219550633 611.0006057139846 19.889999999998548
vertex 78.69056219550633 609.5006057139846 19.889999999998295
vertex 80.19056219550633 571.0006057139865 19.889999999998278
endloop
endfacet
facet normal 1.0 1.4099832412908327e-16 1.616780783327464e-13
outer loop
vertex 40.19056219550635 611.0006057139844 19.889999999998853
vertex 40.19056219550612 571.0006057139848 21.38999999999927
vertex 40.19056219550636 571.0006057139848 19.889999999999272
endloop
endfacet
facet normal 1.0 1.4099832412908327e-16 1.616780783327464e-13
outer loop
vertex 40.19056219550612 571.0006057139848 21.38999999999927
vertex 40.19056219550635 611.0006057139844 19.889999999998853
vertex 40.19056219550611 611.0006057139844 21.38999999999885
endloop
endfacet
facet normal -4.060751734868961e-14 1.0 -2.9518607093488336e-27
outer loop
vertex 40.19056219550636 571.0006057139848 19.889999999999272
vertex 80.19056219550635 571.0006057139865 21.3899999999993
vertex 80.19056219550633 571.0006057139865 19.889999999998278
endloop
endfacet
facet normal -4.060751734868961e-14 1.0 -2.9518607093488336e-27
outer loop
vertex 80.19056219550635 571.0006057139865 21.3899999999993
vertex 40.19056219550636 571.0006057139848 19.889999999999272
vertex 40.19056219550612 571.0006057139848 21.38999999999927
endloop
endfacet
facet normal 6.767919558114874e-15 -1.0 6.015928496102241e-14
outer loop
vertex 80.19056219550635 611.0006057139848 21.389999999999247
vertex 40.19056219550635 611.0006057139844 19.889999999998853
vertex 80.19056219550633 611.0006057139846 19.889999999998548
endloop
endfacet
facet normal 6.767919558114874e-15 -1.0 6.015928496102241e-14
outer loop
vertex 40.19056219550635 611.0006057139844 19.889999999998853
vertex 80.19056219550635 611.0006057139848 21.389999999999247
vertex 40.19056219550611 611.0006057139844 21.38999999999885
endloop
endfacet
facet normal 2.4388899308494988e-15 -1.0 -2.7071678232475065e-13
outer loop
vertex 78.69056219550633 609.5006057139846 19.889999999998295
vertex 41.69056219550612 609.5006057139848 18.889999999999187
vertex 78.69056219550633 609.5006057139848 18.889999999998945
endloop
endfacet
facet normal 2.4388899308494988e-15 -1.0 -2.7071678232475065e-13
outer loop
vertex 41.69056219550612 609.5006057139848 18.889999999999187
vertex 78.69056219550633 609.5006057139846 19.889999999998295
vertex 41.69056219550636 609.5006057139843 19.8899999999988
endloop
endfacet
facet normal -1.0 1.8291674481393163e-15 1.127986593020092e-14
outer loop
vertex 78.69056219550633 609.5006057139846 19.889999999998295
vertex 78.69056219550626 572.5006057139865 18.88999999999927
vertex 78.69056219550626 572.5006057139865 19.889999999998295
endloop
endfacet
facet normal -1.0 1.8291674481393163e-15 1.127986593020092e-14
outer loop
vertex 78.69056219550626 572.5006057139865 18.88999999999927
vertex 78.69056219550633 609.5006057139846 19.889999999998295
vertex 78.69056219550633 609.5006057139848 18.889999999998945
endloop
endfacet
facet normal -4.3900018755340127e-14 1.0 5.572393623574311e-27
outer loop
vertex 41.69056219550605 572.5006057139849 18.889999999999432
vertex 78.69056219550626 572.5006057139865 19.889999999998295
vertex 78.69056219550626 572.5006057139865 18.88999999999927
endloop
endfacet
facet normal -4.3900018755340127e-14 1.0 5.572393623574311e-27
outer loop
vertex 78.69056219550626 572.5006057139865 19.889999999998295
vertex 41.69056219550605 572.5006057139849 18.889999999999432
vertex 41.69056219550629 572.5006057139849 19.88999999999949
endloop
endfacet
facet normal -1.2446748612625098e-16 1.0112983247758525e-16 -1.0
outer loop
vertex 40.19056219550612 613.5006057139836 18.889999999999244
vertex 41.69056219550612 609.5006057139848 18.889999999999187
vertex 41.69056219550605 572.5006057139849 18.889999999999432
endloop
endfacet
facet normal -1.2446748612625098e-16 1.0112983247758525e-16 -1.0
outer loop
vertex 41.69056219550612 609.5006057139848 18.889999999999187
vertex 40.19056219550612 613.5006057139836 18.889999999999244
vertex 80.19056219550633 613.5006057139848 18.889999999999166
endloop
endfacet
facet normal -1.2446748612625098e-16 1.0112983247758525e-16 -1.0
outer loop
vertex 41.69056219550612 609.5006057139848 18.889999999999187
vertex 80.19056219550633 613.5006057139848 18.889999999999166
vertex 78.69056219550633 609.5006057139848 18.889999999998945
endloop
endfacet
facet normal -1.2446748612625098e-16 1.0112983247758525e-16 -1.0
outer loop
vertex 78.69056219550633 609.5006057139848 18.889999999998945
vertex 80.19056219550633 613.5006057139848 18.889999999999166
vertex 80.19056219550575 568.5006057139865 18.889999999999155
endloop
endfacet
facet normal -1.2446748612625098e-16 1.0112983247758525e-16 -1.0
outer loop
vertex 80.19056219550575 568.5006057139865 18.889999999999155
vertex 80.19056219550633 613.5006057139848 18.889999999999166
vertex 82.69056219550572 571.0006057139865 18.88999999999931
endloop
endfacet
facet normal -1.2446748612625098e-16 1.0112983247758525e-16 -1.0
outer loop
vertex 82.69056219550572 571.0006057139865 18.88999999999931
vertex 80.19056219550633 613.5006057139848 18.889999999999166
vertex 82.6905621955063 611.0006057139848 18.889999999999233
endloop
endfacet
facet normal -1.2446748612625098e-16 1.0112983247758525e-16 -1.0
outer loop
vertex 37.690562195506146 611.0006057139836 18.889999999999244
vertex 40.19056219550505 568.5006057139858 18.8899999999992
vertex 37.690562195505066 571.0006057139847 18.889999999999212
endloop
endfacet
facet normal -1.2446748612625098e-16 1.0112983247758525e-16 -1.0
outer loop
vertex 40.19056219550505 568.5006057139858 18.8899999999992
vertex 37.690562195506146 611.0006057139836 18.889999999999244
vertex 40.19056219550612 613.5006057139836 18.889999999999244
endloop
endfacet
facet normal -1.2446748612625098e-16 1.0112983247758525e-16 -1.0
outer loop
vertex 40.19056219550505 568.5006057139858 18.8899999999992
vertex 40.19056219550612 613.5006057139836 18.889999999999244
vertex 41.69056219550605 572.5006057139849 18.889999999999432
endloop
endfacet
facet normal -1.2446748612625098e-16 1.0112983247758525e-16 -1.0
outer loop
vertex 40.19056219550505 568.5006057139858 18.8899999999992
vertex 41.69056219550605 572.5006057139849 18.889999999999432
vertex 80.19056219550575 568.5006057139865 18.889999999999155
endloop
endfacet
facet normal -1.2446748612625098e-16 1.0112983247758525e-16 -1.0
outer loop
vertex 80.19056219550575 568.5006057139865 18.889999999999155
vertex 41.69056219550605 572.5006057139849 18.889999999999432
vertex 78.69056219550626 572.5006057139865 18.88999999999927
endloop
endfacet
facet normal -1.2446748612625098e-16 1.0112983247758525e-16 -1.0
outer loop
vertex 80.19056219550575 568.5006057139865 18.889999999999155
vertex 78.69056219550626 572.5006057139865 18.88999999999927
vertex 78.69056219550633 609.5006057139848 18.889999999998945
endloop
endfacet
facet normal 0.3264503395036294 -0.8848417761052791 -0.332393151398792
outer loop
vertex 82.6905621955063 611.0006057139848 18.889999999999233
vertex 88.80326512382904 619.8297255709849 1.3900000000000743
vertex 98.23979625410549 620.426193100802 9.070000000000112
endloop
endfacet
facet normal -0.32202573742081464 -0.8885882082799712 -0.3266656096750483
outer loop
vertex 37.690562195506146 611.0006057139836 18.889999999999244
vertex 21.643368072392803 620.426193100802 9.07000000000004
vertex 31.079899202669523 619.8297255709849 1.3899999999999986
endloop
endfacet
facet normal -0.8634798085040232 0.5043834060571931 -4.214079983873741e-13
outer loop
vertex 89.39973265364644 629.2662567012616 9.07000000000008
vertex 80.19056219550633 613.5006057139848 18.889999999999166
vertex 80.19056219550511 613.5006057139848 21.38999999999915
endloop
endfacet
facet normal -0.8811651445248134 0.33070594771669126 0.33790762675525693
outer loop
vertex 40.19056219550505 568.5006057139858 18.8899999999992
vertex 31.079899202669523 562.1063596498249 1.3899999999999986
vertex 30.48343167285228 552.6698285195483 9.069999999999995
endloop
endfacet
facet normal 0.5183744834215873 -0.8551537259097938 2.5252231988682005e-13
outer loop
vertex 82.69056219550508 611.0006057139848 21.38999999999915
vertex 82.6905621955063 611.0006057139848 18.889999999999233
vertex 98.23979625410549 620.426193100802 9.070000000000112
endloop
endfacet
facet normal -0.8643830712835506 -0.5028338752295991 -5.857391049959535e-13
outer loop
vertex 80.19056219550575 568.5006057139865 18.889999999999155
vertex 89.39973265364648 552.6698285195483 9.070000000000071
vertex 80.19056219550511 568.5006057139847 21.389999999999162
endloop
endfacet
facet normal -0.8515331351635613 -0.5243007912625309 -1.424837515823739e-13
outer loop
vertex 30.48343167285233 629.2662567012616 9.070000000000016
vertex 40.19056219550612 613.5006057139836 18.889999999999244
vertex 40.19056219550503 613.5006057139848 21.389999999999162
endloop
endfacet
facet normal 0.8806563005189973 0.33128838313908987 -0.3386627932815784
outer loop
vertex 30.48343167285233 629.2662567012616 9.070000000000016
vertex 40.19056219550612 613.5006057139836 18.889999999999244
vertex 31.079899202669523 619.8297255709849 1.3899999999999986
endloop
endfacet
facet normal 0.8524957617050507 -0.522734135364169 -2.2399984404593938e-13
outer loop
vertex 40.19056219550505 568.5006057139858 18.8899999999992
vertex 40.19056219550503 568.5006057139847 21.389999999999162
vertex 30.48343167285228 552.6698285195483 9.069999999999995
endloop
endfacet
facet normal 0.5209864591076733 0.8535649415401553 7.463710088417133e-13
outer loop
vertex 82.69056219550508 571.0006057139847 21.389999999999162
vertex 98.23979625410549 561.5098921200074 9.070000000000112
vertex 82.69056219550572 571.0006057139865 18.88999999999931
endloop
endfacet
facet normal -0.8909301065517133 0.31921281014513886 -0.3230274401331818
outer loop
vertex 89.39973265364644 629.2662567012616 9.07000000000008
vertex 88.80326512382904 619.8297255709849 1.3900000000000743
vertex 80.19056219550633 613.5006057139848 18.889999999999166
endloop
endfacet
facet normal -0.506463596461588 -0.8622613440594411 1.5318667687632177e-13
outer loop
vertex 37.690562195505066 611.0006057139848 21.389999999999162
vertex 21.643368072392803 620.426193100802 9.07000000000004
vertex 37.690562195506146 611.0006057139836 18.889999999999244
endloop
endfacet
facet normal 0.32803266155081234 0.8834831783556464 -0.3344428897711766
outer loop
vertex 82.69056219550572 571.0006057139865 18.88999999999931
vertex 98.23979625410549 561.5098921200074 9.070000000000112
vertex 88.80326512382908 562.1063596498249 1.3900000000000308
endloop
endfacet
facet normal -0.8914053241957968 -0.31863746284150013 -0.32228359447746946
outer loop
vertex 80.19056219550575 568.5006057139865 18.889999999999155
vertex 88.80326512382908 562.1063596498249 1.3900000000000308
vertex 89.39973265364648 552.6698285195483 9.070000000000071
endloop
endfacet
facet normal -0.4045750107760083 -0.40457501077599395 -0.8201451830689475
outer loop
vertex 89.39973265364644 629.2662567012616 9.07000000000008
vertex 82.69056219550508 611.0006057139848 21.38999999999915
vertex 80.19056219550511 613.5006057139848 21.38999999999915
endloop
endfacet
facet normal -0.4045750107760083 -0.40457501077599395 -0.8201451830689475
outer loop
vertex 82.69056219550508 611.0006057139848 21.38999999999915
vertex 89.39973265364644 629.2662567012616 9.07000000000008
vertex 98.23979625410549 620.426193100802 9.070000000000112
endloop
endfacet
facet normal -0.3985094836767243 -0.3985094836767442 0.826063183321594
outer loop
vertex 30.48343167285228 552.6698285195483 9.069999999999995
vertex 37.690562195505066 571.0006057139847 21.389999999999162
vertex 21.643368072392803 561.5098921200074 9.07000000000004
endloop
endfacet
facet normal -0.3985094836767243 -0.3985094836767442 0.826063183321594
outer loop
vertex 37.690562195505066 571.0006057139847 21.389999999999162
vertex 30.48343167285228 552.6698285195483 9.069999999999995
vertex 40.19056219550503 568.5006057139847 21.389999999999162
endloop
endfacet
facet normal -0.3992038930037018 0.3992038930037064 0.8253923331491361
outer loop
vertex 37.690562195505066 611.0006057139848 21.389999999999162
vertex 30.48343167285233 629.2662567012616 9.070000000000016
vertex 21.643368072392803 620.426193100802 9.07000000000004
endloop
endfacet
facet normal -0.3992038930037018 0.3992038930037064 0.8253923331491361
outer loop
vertex 30.48343167285233 629.2662567012616 9.070000000000016
vertex 37.690562195505066 611.0006057139848 21.389999999999162
vertex 40.19056219550503 613.5006057139848 21.389999999999162
endloop
endfacet
facet normal -0.4038663188064238 0.40386631880642365 -0.8208434644117575
outer loop
vertex 82.69056219550508 571.0006057139847 21.389999999999162
vertex 89.39973265364648 552.6698285195483 9.070000000000071
vertex 80.19056219550511 568.5006057139847 21.389999999999162
endloop
endfacet
facet normal -0.4038663188064238 0.40386631880642365 -0.8208434644117575
outer loop
vertex 89.39973265364648 552.6698285195483 9.070000000000071
vertex 82.69056219550508 571.0006057139847 21.389999999999162
vertex 98.23979625410549 561.5098921200074 9.070000000000112
endloop
endfacet
facet normal -0.6312270304674181 2.6073634959697653e-18 -0.7755981150101419
outer loop
vertex 19.996589184196406 621.6801521527908 7.9999999999999964
vertex 21.26371228807672 575.3778870347168 6.9687412351580935
vertex 19.996589184196406 560.3090052977965 7.9999999999999964
endloop
endfacet
facet normal -0.6312270304674181 2.6073634959697653e-18 -0.7755981150101419
outer loop
vertex 21.26371228807672 575.3778870347168 6.9687412351580935
vertex 19.996589184196406 621.6801521527908 7.9999999999999964
vertex 29.826309111567987 621.0588318092313 -4.511946372076636e-14
endloop
endfacet
facet normal -0.6312270304674181 2.6073634959697653e-18 -0.7755981150101419
outer loop
vertex 21.26371228807672 575.3778870347168 6.9687412351580935
vertex 29.826309111567987 621.0588318092313 -4.511946372076636e-14
vertex 29.019693438178145 575.3778870347168 0.6564709304839148
endloop
endfacet
facet normal -0.6312270304674181 2.6073634959697653e-18 -0.7755981150101419
outer loop
vertex 29.019693438178145 575.3778870347168 0.6564709304839148
vertex 29.826309111567987 621.0588318092313 -4.511946372076636e-14
vertex 29.019693438178145 562.3778870347168 0.6564709304839148
endloop
endfacet
facet normal -0.6312270304674181 2.6073634959697653e-18 -0.7755981150101419
outer loop
vertex 19.996589184196406 560.3090052977965 7.9999999999999964
vertex 21.26371228807672 562.3778870347168 6.9687412351580935
vertex 29.826309111567987 560.9303256413563 -4.511946372076636e-14
endloop
endfacet
facet normal -0.6312270304674181 2.6073634959697653e-18 -0.7755981150101419
outer loop
vertex 21.26371228807672 562.3778870347168 6.9687412351580935
vertex 19.996589184196406 560.3090052977965 7.9999999999999964
vertex 21.26371228807672 575.3778870347168 6.9687412351580935
endloop
endfacet
facet normal -0.6312270304674181 2.6073634959697653e-18 -0.7755981150101419
outer loop
vertex 29.826309111567987 560.9303256413563 -4.511946372076636e-14
vertex 21.26371228807672 562.3778870347168 6.9687412351580935
vertex 29.019693438178145 562.3778870347168 0.6564709304839148
endloop
endfacet
facet normal -0.6312270304674181 2.6073634959697653e-18 -0.7755981150101419
outer loop
vertex 29.826309111567987 560.9303256413563 -4.511946372076636e-14
vertex 29.019693438178145 562.3778870347168 0.6564709304839148
vertex 29.826309111567987 621.0588318092313 -4.511946372076636e-14
endloop
endfacet
facet normal -0.605337752222765 -0.6053377522227829 -0.5168485382273603
outer loop
vertex 82.6905621955063 611.0006057139848 18.889999999999233
vertex 80.19056219550633 613.5006057139848 18.889999999999166
vertex 88.80326512382904 619.8297255709849 1.3900000000000743
endloop
endfacet
facet normal 9.37979890827406e-16 3.751919563309599e-16 -1.0
outer loop
vertex 89.95481527944249 621.0588318092313 3.3839597790574766e-14
vertex 29.826309111567987 560.9303256413563 -4.511946372076636e-14
vertex 29.826309111567987 621.0588318092313 -4.511946372076636e-14
endloop
endfacet
facet normal 9.37979890827406e-16 3.751919563309599e-16 -1.0
outer loop
vertex 29.826309111567987 560.9303256413563 -4.511946372076636e-14
vertex 89.95481527944249 621.0588318092313 3.3839597790574766e-14
vertex 89.95481527944253 560.9303256413563 -1.127986593019159e-14
endloop
endfacet
facet normal 0.7755981150101418 0.0 -0.631227030467418
outer loop
vertex 29.019693438178145 575.3778870347168 0.6564709304839148
vertex 30.19969746423683 562.3778870347168 2.106359566649892
vertex 29.019693438178145 562.3778870347168 0.6564709304839148
endloop
endfacet
facet normal 0.7755981150101418 0.0 -0.631227030467418
outer loop
vertex 30.19969746423683 562.3778870347168 2.106359566649892
vertex 29.019693438178145 575.3778870347168 0.6564709304839148
vertex 30.19969746423683 575.3778870347168 2.106359566649892
endloop
endfacet
facet normal -0.7755981150101418 0.0 0.631227030467418
outer loop
vertex 22.44371631413541 575.3778870347168 8.418629871324073
vertex 21.26371228807672 562.3778870347168 6.9687412351580935
vertex 22.44371631413541 562.3778870347168 8.418629871324073
endloop
endfacet
facet normal -0.7755981150101418 0.0 0.631227030467418
outer loop
vertex 21.26371228807672 562.3778870347168 6.9687412351580935
vertex 22.44371631413541 575.3778870347168 8.418629871324073
vertex 21.26371228807672 575.3778870347168 6.9687412351580935
endloop
endfacet
facet normal 1.199920127409761e-30 -1.0 1.474359848456739e-30
outer loop
vertex 30.19969746423683 562.3778870347168 2.106359566649892
vertex 21.26371228807672 562.3778870347168 6.9687412351580935
vertex 29.019693438178145 562.3778870347168 0.6564709304839148
endloop
endfacet
facet normal 1.199920127409761e-30 -1.0 1.474359848456739e-30
outer loop
vertex 21.26371228807672 562.3778870347168 6.9687412351580935
vertex 30.19969746423683 562.3778870347168 2.106359566649892
vertex 22.44371631413541 562.3778870347168 8.418629871324073
endloop
endfacet
facet normal -1.199920127409761e-30 1.0 -1.474359848456739e-30
outer loop
vertex 21.26371228807672 575.3778870347168 6.9687412351580935
vertex 30.19969746423683 575.3778870347168 2.106359566649892
vertex 29.019693438178145 575.3778870347168 0.6564709304839148
endloop
endfacet
facet normal -1.199920127409761e-30 1.0 -1.474359848456739e-30
outer loop
vertex 30.19969746423683 575.3778870347168 2.106359566649892
vertex 21.26371228807672 575.3778870347168 6.9687412351580935
vertex 22.44371631413541 575.3778870347168 8.418629871324073
endloop
endfacet
endsolid outside_2013
